<svg width="16" height="16" viewBox="0 0 16 16" fill="none" xmlns="http://www.w3.org/2000/svg">
<path d="M3.89967 11.4C4.46634 10.9666 5.09967 10.625 5.79967 10.375C6.49967 10.125 7.23301 9.99998 7.99967 9.99998C8.76634 9.99998 9.49967 10.125 10.1997 10.375C10.8997 10.625 11.533 10.9666 12.0997 11.4C12.4886 10.9444 12.7913 10.4278 13.008 9.84998C13.2247 9.2722 13.333 8.65554 13.333 7.99998C13.333 6.5222 12.8136 5.26387 11.7747 4.22498C10.7358 3.18609 9.47745 2.66665 7.99967 2.66665C6.5219 2.66665 5.26356 3.18609 4.22467 4.22498C3.18579 5.26387 2.66634 6.5222 2.66634 7.99998C2.66634 8.65554 2.77467 9.2722 2.99134 9.84998C3.20801 10.4278 3.51079 10.9444 3.89967 11.4ZM7.99967 8.66665C7.34412 8.66665 6.79134 8.44165 6.34134 7.99165C5.89134 7.54165 5.66634 6.98887 5.66634 6.33331C5.66634 5.67776 5.89134 5.12498 6.34134 4.67498C6.79134 4.22498 7.34412 3.99998 7.99967 3.99998C8.65523 3.99998 9.20801 4.22498 9.65801 4.67498C10.108 5.12498 10.333 5.67776 10.333 6.33331C10.333 6.98887 10.108 7.54165 9.65801 7.99165C9.20801 8.44165 8.65523 8.66665 7.99967 8.66665ZM7.99967 14.6666C7.07745 14.6666 6.21079 14.4916 5.39967 14.1416C4.58856 13.7916 3.88301 13.3166 3.28301 12.7166C2.68301 12.1166 2.20801 11.4111 1.85801 10.6C1.50801 9.78887 1.33301 8.9222 1.33301 7.99998C1.33301 7.07776 1.50801 6.21109 1.85801 5.39998C2.20801 4.58887 2.68301 3.88331 3.28301 3.28331C3.88301 2.68331 4.58856 2.20831 5.39967 1.85831C6.21079 1.50831 7.07745 1.33331 7.99967 1.33331C8.9219 1.33331 9.78856 1.50831 10.5997 1.85831C11.4108 2.20831 12.1163 2.68331 12.7163 3.28331C13.3163 3.88331 13.7913 4.58887 14.1413 5.39998C14.4913 6.21109 14.6663 7.07776 14.6663 7.99998C14.6663 8.9222 14.4913 9.78887 14.1413 10.6C13.7913 11.4111 13.3163 12.1166 12.7163 12.7166C12.1163 13.3166 11.4108 13.7916 10.5997 14.1416C9.78856 14.4916 8.9219 14.6666 7.99967 14.6666Z" fill="#7C7C88"/>
</svg>
