<svg width="20" height="20" viewBox="0 0 20 20" fill="none" xmlns="http://www.w3.org/2000/svg">
<mask id="mask0_170_1304" style="mask-type:alpha" maskUnits="userSpaceOnUse" x="0" y="0" width="20" height="20">
<rect width="20" height="20" fill="#D9D9D9"/>
</mask>
<g mask="url(#mask0_170_1304)">
<path d="M7.00033 14.1667L10.0003 11.1667L13.0003 14.1667L14.167 13.0001L11.167 10.0001L14.167 7.00008L13.0003 5.83341L10.0003 8.83342L7.00033 5.83341L5.83366 7.00008L8.83366 10.0001L5.83366 13.0001L7.00033 14.1667ZM10.0003 18.3334C8.84755 18.3334 7.76421 18.1147 6.75033 17.6772C5.73644 17.2397 4.85449 16.6459 4.10449 15.8959C3.35449 15.1459 2.76074 14.264 2.32324 13.2501C1.88574 12.2362 1.66699 11.1529 1.66699 10.0001C1.66699 8.8473 1.88574 7.76397 2.32324 6.75008C2.76074 5.73619 3.35449 4.85425 4.10449 4.10425C4.85449 3.35425 5.73644 2.7605 6.75033 2.323C7.76421 1.8855 8.84755 1.66675 10.0003 1.66675C11.1531 1.66675 12.2364 1.8855 13.2503 2.323C14.2642 2.7605 15.1462 3.35425 15.8962 4.10425C16.6462 4.85425 17.2399 5.73619 17.6774 6.75008C18.1149 7.76397 18.3337 8.8473 18.3337 10.0001C18.3337 11.1529 18.1149 12.2362 17.6774 13.2501C17.2399 14.264 16.6462 15.1459 15.8962 15.8959C15.1462 16.6459 14.2642 17.2397 13.2503 17.6772C12.2364 18.1147 11.1531 18.3334 10.0003 18.3334Z" fill="#D9D9DE"/>
</g>
</svg>
