<svg width="16" height="16" viewBox="0 0 16 16" fill="none" xmlns="http://www.w3.org/2000/svg">
<mask id="mask0_171_4044" style="mask-type:luminance" maskUnits="userSpaceOnUse" x="0" y="0" width="16" height="16">
<path d="M0 0H16V16H0V0Z" fill="white"/>
</mask>
<g mask="url(#mask0_171_4044)">
<path d="M15.2309 15.419L15.9809 12.169C16.0622 11.8159 15.8778 11.4534 15.5465 11.3097L12.0465 9.8097C11.7403 9.67845 11.3809 9.76594 11.1715 10.0253L9.62153 11.919C7.22466 10.794 5.23096 8.82845 4.08406 6.38158L5.97776 4.83158C6.23716 4.61908 6.32466 4.26282 6.19341 3.95657L4.69346 0.456575C4.54656 0.1222 4.18406 -0.062175 3.83096 0.019075L0.580962 0.769075C0.243462 0.8472 -0.000337651 1.1472 -0.000337666 1.50032C-0.000338016 9.50345 6.48404 16.0003 14.4997 16.0003C14.8497 16.0003 15.1528 15.7597 15.2309 15.419Z" fill="#7C7C88"/>
</g>
</svg>
