<svg width="20" height="20" viewBox="0 0 20 20" fill="none" xmlns="http://www.w3.org/2000/svg">
<mask id="mask0_170_1267" style="mask-type:luminance" maskUnits="userSpaceOnUse" x="0" y="0" width="20" height="20">
<path d="M0 0H20V20H0V0Z" fill="white"/>
</mask>
<g mask="url(#mask0_170_1267)">
<path d="M14.375 7.5H13.75V4.375C13.75 2.30532 12.0697 0.625 10 0.625C7.93032 0.625 6.25 2.30532 6.25 4.375V7.5H5.625C4.24491 7.50151 3.12651 8.61991 3.125 10V16.875C3.12651 18.2551 4.24491 19.3735 5.625 19.375H14.375C15.7551 19.3735 16.8735 18.2551 16.875 16.875V10C16.8735 8.61991 15.7551 7.50151 14.375 7.5ZM12.5 7.5H7.5V4.375C7.5 2.99521 8.62021 1.875 10 1.875C11.3798 1.875 12.5 2.99521 12.5 4.375" fill="white" fill-opacity="0.4"/>
</g>
</svg>
