<svg width="24" height="24" viewBox="0 0 24 24" fill="none" xmlns="http://www.w3.org/2000/svg">
<mask id="mask0_171_4096" style="mask-type:luminance" maskUnits="userSpaceOnUse" x="0" y="0" width="24" height="24">
<path d="M0 0H24V24H0V0Z" fill="white"/>
</mask>
<g mask="url(#mask0_171_4096)">
<path d="M15.0564 10.9406L9.99399 9.45938C9.40805 9.29063 9.00024 8.74219 9.00024 8.13281C9.00024 7.36875 9.61899 6.75 10.383 6.75H13.4908C14.0627 6.75 14.6252 6.92344 15.094 7.24219C15.3799 7.43437 15.7643 7.3875 16.008 7.14844L17.6393 5.55469C17.9721 5.23125 17.9252 4.69219 17.5549 4.40625C16.4064 3.50625 14.9721 3.00469 13.5002 3V0.75C13.5002 0.3375 13.1627 0 12.7502 0H11.2502C10.8377 0 10.5002 0.3375 10.5002 0.75V3H10.383C7.39711 3 4.99711 5.56406 5.27368 8.60625C5.47055 10.7672 7.12055 12.525 9.2018 13.1344L14.0065 14.5406C14.5924 14.7141 15.0002 15.2578 15.0002 15.8672C15.0002 16.6313 14.3815 17.25 13.6174 17.25H10.5096C9.93774 17.25 9.37524 17.0766 8.90649 16.7578C8.62055 16.5656 8.23618 16.6125 7.99243 16.8516L6.36118 18.4453C6.02837 18.7687 6.07524 19.3078 6.44555 19.5938C7.59399 20.4937 9.02836 20.9953 10.5002 21V23.25C10.5002 23.6625 10.8377 24 11.2502 24H12.7502C13.1627 24 13.5002 23.6625 13.5002 23.25V20.9906C15.6846 20.9484 17.733 19.65 18.4549 17.5828C19.4627 14.6953 17.7705 11.7328 15.0564 10.9406Z" fill="#3E065F"/>
</g>
</svg>
