<svg width="24" height="24" viewBox="0 0 24 24" fill="none" xmlns="http://www.w3.org/2000/svg">
<mask id="mask0_171_4106" style="mask-type:luminance" maskUnits="userSpaceOnUse" x="0" y="0" width="24" height="24">
<path d="M0 0H24V24H0V0Z" fill="white"/>
</mask>
<g mask="url(#mask0_171_4106)">
<path d="M12 0.375C5.57812 0.375 0.375 5.57812 0.375 12C0.375 18.4219 5.57812 23.625 12 23.625C18.4219 23.625 23.625 18.4219 23.625 12C23.625 5.57812 18.4219 0.375 12 0.375ZM16.3355 15.0469L15.398 16.2188C15.2737 16.3741 15.0928 16.4737 14.8951 16.4957C14.6974 16.5177 14.4991 16.4602 14.3438 16.3359L11.2031 14.0053C10.7586 13.6494 10.4999 13.1108 10.5 12.5414V5.25C10.5 4.83579 10.8358 4.5 11.25 4.5H12.75C13.1639 4.5 13.5 4.83606 13.5 5.25V12L16.2188 13.9922C16.3742 14.1165 16.4738 14.2975 16.4957 14.4953C16.5176 14.6932 16.4599 14.8916 16.3355 15.0469Z" fill="#3E065F"/>
</g>
</svg>
