<svg width="24" height="24" viewBox="0 0 24 24" fill="none" xmlns="http://www.w3.org/2000/svg">
<mask id="mask0_171_4086" style="mask-type:luminance" maskUnits="userSpaceOnUse" x="0" y="0" width="24" height="24">
<path d="M0 0H24V24H0V0Z" fill="white"/>
</mask>
<g mask="url(#mask0_171_4086)">
<path d="M23.3375 8.14502L12.8773 4.93127C12.3073 4.75614 11.6923 4.75614 11.1227 4.93127L0.662062 8.14502C-0.220688 8.41615 -0.220688 9.58352 0.662062 9.85464L2.48568 10.4149C2.08556 10.9095 1.83956 11.5129 1.81518 12.1736C1.45406 12.3806 1.19981 12.7541 1.19981 13.2C1.19981 13.6042 1.41281 13.9444 1.71956 14.1619L0.762187 18.4699C0.678937 18.8445 0.963937 19.2 1.34756 19.2H3.45168C3.83569 19.2 4.12068 18.8445 4.03743 18.4699L3.08006 14.1619C3.38681 13.9444 3.59981 13.6042 3.59981 13.2C3.59981 12.7661 3.35718 12.4031 3.01256 12.1924C3.04106 11.6291 3.32906 11.1311 3.78844 10.8154L11.1223 13.0688C11.4621 13.173 12.1138 13.3031 12.8769 13.0688L23.3375 9.85502C24.2207 9.58352 24.2207 8.41652 23.3375 8.14502ZM13.2294 14.2159C12.1595 14.5444 11.2479 14.3629 10.7698 14.2159L5.33156 12.5452L4.79981 16.8C4.79981 18.1256 8.02331 19.2 11.9998 19.2C15.9763 19.2 19.1998 18.1256 19.1998 16.8L18.668 12.5449L13.2294 14.2159Z" fill="#3E065F"/>
</g>
</svg>
