<svg width="20" height="20" viewBox="0 0 20 20" fill="none" xmlns="http://www.w3.org/2000/svg">
<mask id="mask0_170_1253" style="mask-type:luminance" maskUnits="userSpaceOnUse" x="0" y="0" width="20" height="20">
<path d="M20 0V20H0V0H20Z" fill="white"/>
</mask>
<g mask="url(#mask0_170_1253)">
<path d="M19.0386 19.2733L19.9761 15.2108C20.0777 14.7694 19.8472 14.3163 19.4332 14.1366L15.0582 12.2616C14.6754 12.0976 14.2261 12.2069 13.9644 12.5311L12.0269 14.8983C9.03078 13.4921 6.53868 11.0351 5.10508 7.97648L7.47228 6.03898C7.79648 5.77336 7.90578 5.32804 7.74178 4.94523L5.86678 0.570231C5.68318 0.152263 5.23008 -0.0782064 4.78868 0.0233561L0.726179 0.960857C0.304279 1.05851 -0.000421524 1.43351 -0.000421524 1.87492C-0.000421524 11.8788 8.10508 19.9999 18.1246 19.9999C18.5621 19.9999 18.941 19.6991 19.0386 19.2733Z" fill="#9CA3AF"/>
</g>
</svg>
