<svg width="20" height="20" viewBox="0 0 20 20" fill="none" xmlns="http://www.w3.org/2000/svg">
<mask id="mask0_170_1276" style="mask-type:luminance" maskUnits="userSpaceOnUse" x="0" y="0" width="20" height="20">
<path d="M0 0H20V20H0V0Z" fill="white"/>
</mask>
<g mask="url(#mask0_170_1276)">
<path fill-rule="evenodd" clip-rule="evenodd" d="M9.98677 3.75C11.8293 3.75 13.599 4.29783 15.296 5.39349C16.8276 6.3824 18.1209 7.69162 19.1759 9.32113C19.3091 9.52804 19.3757 9.75453 19.3757 10.0006C19.3757 10.2467 19.3095 10.4725 19.1771 10.6782C18.1285 12.3203 16.8386 13.6343 15.3071 14.6203C13.6197 15.7068 11.8462 16.25 9.98677 16.25C8.11264 16.25 6.33784 15.708 4.66238 14.6239C3.15417 13.648 1.87508 12.3382 0.825087 10.6946C0.687961 10.4824 0.621318 10.25 0.625157 9.9973C0.628995 9.74465 0.703278 9.51346 0.848006 9.30373C2.106 7.50049 3.53414 6.11946 5.13243 5.16063C6.70004 4.22021 8.31815 3.75 9.98677 3.75ZM9.98677 5C8.54894 5 7.14518 5.41085 5.77548 6.23254C4.33076 7.09924 3.0306 8.36049 1.87501 10.0163C2.82981 11.5109 3.98528 12.6969 5.34143 13.5744C6.81028 14.5248 8.35873 15 9.98677 15C11.6012 15 13.1491 14.5231 14.6305 13.5693C16.0087 12.6819 17.1731 11.4939 18.1236 10.0054C18.1257 10.0022 18.1261 9.99961 18.1248 9.99763C17.1682 8.52018 15.9993 7.33551 14.6179 6.44362C13.1274 5.48121 11.5837 5 9.98677 5Z" fill="white" fill-opacity="0.4"/>
<path d="M10 7.5C9.661 7.5 9.3369 7.56544 9.02771 7.69631C8.72868 7.82288 8.46367 8.00166 8.23267 8.23267C8.00166 8.46367 7.82288 8.72868 7.69631 9.02771C7.56544 9.3369 7.5 9.661 7.5 10C7.5 10.339 7.56544 10.6631 7.69631 10.9723C7.82288 11.2713 8.00166 11.5363 8.23267 11.7673C8.46367 11.9983 8.72868 12.1771 9.02771 12.3037C9.3369 12.4346 9.661 12.5 10 12.5C10.339 12.5 10.6631 12.4346 10.9723 12.3037C11.2713 12.1771 11.5363 11.9983 11.7673 11.7673C11.9983 11.5363 12.1771 11.2713 12.3037 10.9723C12.4346 10.6631 12.5 10.339 12.5 10C12.5 9.661 12.4346 9.3369 12.3037 9.02771C12.1771 8.72868 11.9983 8.46367 11.7673 8.23267C11.5363 8.00166 11.2713 7.82288 10.9723 7.69631C10.6631 7.56544 10.339 7.5 10 7.5V6.25C10.5081 6.25 10.9946 6.34839 11.4595 6.54518C11.9081 6.73505 12.3053 7.00292 12.6512 7.34878C12.9971 7.69464 13.2649 8.09187 13.4548 8.54048C13.6516 9.00539 13.75 9.4919 13.75 10C13.75 10.5081 13.6516 10.9946 13.4548 11.4595C13.2649 11.9081 12.9971 12.3053 12.6512 12.6512C12.3053 12.9971 11.9081 13.2649 11.4595 13.4548C10.9946 13.6516 10.5081 13.75 10 13.75C9.4919 13.75 9.00539 13.6516 8.54048 13.4548C8.09187 13.2649 7.69464 12.9971 7.34878 12.6512C7.00292 12.3053 6.73505 11.9081 6.54518 11.4595C6.34839 10.9946 6.25 10.5081 6.25 10C6.25 9.4919 6.34839 9.00539 6.54518 8.54048C6.73505 8.09187 7.00292 7.69464 7.34878 7.34878C7.69464 7.00293 8.09187 6.73506 8.54048 6.54518C9.00539 6.34839 9.4919 6.25 10 6.25V7.5Z" fill="white" fill-opacity="0.4"/>
</g>
</svg>
