<svg width="16" height="16" viewBox="0 0 16 16" fill="none" xmlns="http://www.w3.org/2000/svg">
<mask id="mask0_163_2659" style="mask-type:luminance" maskUnits="userSpaceOnUse" x="0" y="0" width="16" height="16">
<path d="M0 0H16V16H0V0Z" fill="white"/>
</mask>
<g mask="url(#mask0_163_2659)">
<path d="M9.25 12.0001H6.75C6.33435 12.0001 6 11.6657 6 11.2501V6.0001H3.25938C2.70312 6.0001 2.425 5.3282 2.81875 4.93447L7.5719 0.178223C7.80625 -0.0561523 8.19065 -0.0561523 8.425 0.178223L13.1812 4.93447C13.575 5.3282 13.2969 6.0001 12.7407 6.0001H10V11.2501C10 11.6657 9.6656 12.0001 9.25 12.0001ZM16 11.7501V15.2501C16 15.6657 15.6656 16.0001 15.25 16.0001H0.75C0.334375 16.0001 0 15.6657 0 15.2501V11.7501C0 11.3345 0.334375 11.0001 0.75 11.0001H5V11.2501C5 12.2157 5.7844 13.0001 6.75 13.0001H9.25C10.2156 13.0001 11 12.2157 11 11.2501V11.0001H15.25C15.6656 11.0001 16 11.3345 16 11.7501ZM12.125 14.5001C12.125 14.1563 11.8438 13.8751 11.5 13.8751C11.1562 13.8751 10.875 14.1563 10.875 14.5001C10.875 14.8438 11.1562 15.1251 11.5 15.1251C11.8438 15.1251 12.125 14.8438 12.125 14.5001ZM14.125 14.5001C14.125 14.1563 13.8438 13.8751 13.5 13.8751C13.1562 13.8751 12.875 14.1563 12.875 14.5001C12.875 14.8438 13.1562 15.1251 13.5 15.1251C13.8438 15.1251 14.125 14.8438 14.125 14.5001Z" fill="#7C7C88"/>
</g>
</svg>
