<svg width="20" height="20" viewBox="0 0 20 20" fill="none" xmlns="http://www.w3.org/2000/svg">
<mask id="mask0_170_1239" style="mask-type:luminance" maskUnits="userSpaceOnUse" x="0" y="0" width="20" height="20">
<path d="M0 0H20V20H0V0Z" fill="white"/>
</mask>
<g mask="url(#mask0_170_1239)">
<path fill-rule="evenodd" clip-rule="evenodd" d="M3.4375 3.125H16.5625C16.8588 3.125 17.1427 3.18243 17.4141 3.2973C17.6758 3.40807 17.9074 3.56428 18.1091 3.76592C18.3107 3.96757 18.4669 4.19924 18.5777 4.46093C18.6926 4.73232 18.75 5.01617 18.75 5.3125V14.6875C18.75 14.9838 18.6926 15.2677 18.5777 15.5391C18.4669 15.8008 18.3107 16.0324 18.1091 16.2341C17.9074 16.4357 17.6758 16.5919 17.4141 16.7027C17.1427 16.8176 16.8588 16.875 16.5625 16.875H3.4375C3.14117 16.875 2.85732 16.8176 2.58593 16.7027C2.32424 16.5919 2.09257 16.4357 1.89092 16.2341C1.68928 16.0324 1.53307 15.8008 1.4223 15.5391C1.30743 15.2677 1.25 14.9838 1.25 14.6875V5.3125C1.25 5.01617 1.30743 4.73232 1.4223 4.46093C1.53307 4.19923 1.68928 3.96756 1.89092 3.76592C2.09256 3.56428 2.32423 3.40808 2.58593 3.29731C2.85732 3.18244 3.14117 3.125 3.4375 3.125ZM3.4375 4.375C3.17891 4.375 2.95801 4.4666 2.7748 4.6498C2.5916 4.83301 2.5 5.05391 2.5 5.3125V14.6875C2.5 14.9461 2.5916 15.167 2.7748 15.3502C2.95801 15.5334 3.17891 15.625 3.4375 15.625H16.5625C16.8211 15.625 17.042 15.5334 17.2252 15.3502C17.4084 15.167 17.5 14.9461 17.5 14.6875V5.3125C17.5 5.05391 17.4084 4.83301 17.2252 4.6498C17.042 4.4666 16.8211 4.375 16.5625 4.375H3.4375Z" fill="white" fill-opacity="0.4"/>
<path fill-rule="evenodd" clip-rule="evenodd" d="M3.99132 6.74338C3.71885 6.53146 3.66977 6.13878 3.88168 5.86632C4.0936 5.59385 4.48628 5.54477 4.75874 5.75668L10 9.83324L15.2413 5.75668C15.5138 5.54477 15.9064 5.59385 16.1183 5.86632C16.3303 6.13878 16.2812 6.53146 16.0087 6.74338L10.3837 11.1183C10.3565 11.1395 10.3277 11.1583 10.2973 11.1747C10.267 11.1912 10.2355 11.205 10.2028 11.2162C10.1702 11.2274 10.1369 11.2359 10.1028 11.2415C10.0688 11.2472 10.0346 11.25 10 11.25C9.96552 11.25 9.93125 11.2472 9.89721 11.2415C9.86317 11.2359 9.82983 11.2274 9.79719 11.2162C9.76455 11.205 9.73305 11.1912 9.7027 11.1747C9.67235 11.1583 9.64356 11.1395 9.61632 11.1183L3.99132 6.74338Z" fill="white" fill-opacity="0.4"/>
</g>
</svg>
