<svg width="16" height="16" viewBox="0 0 16 16" fill="none" xmlns="http://www.w3.org/2000/svg">
<mask id="mask0_163_2737" style="mask-type:luminance" maskUnits="userSpaceOnUse" x="0" y="0" width="16" height="16">
<path d="M0 0H16V16H0V0Z" fill="white"/>
</mask>
<g mask="url(#mask0_163_2737)">
<path d="M10 10.5C10 10.7763 9.77627 11 9.5 11H6.5C6.22375 11 6 10.7763 6 10.5V9H0V13.5C0 14.3 0.7 15 1.5 15H14.5C15.3 15 16 14.3 16 13.5V9H10V10.5ZM14.5 4H12V2.5C12 1.7 11.3 1 10.5 1H5.5C4.7 1 4 1.7 4 2.5V4H1.5C0.7 4 0 4.7 0 5.5V8H16V5.5C16 4.7 15.3 4 14.5 4ZM10 4H6V3H10V4Z" fill="#7C7C88"/>
</g>
</svg>
