<svg width="48" height="48" viewBox="0 0 48 48" fill="none" xmlns="http://www.w3.org/2000/svg">
<rect width="48" height="48" rx="24" fill="#FBF5FF"/>
<mask id="mask0_171_4095" style="mask-type:luminance" maskUnits="userSpaceOnUse" x="12" y="12" width="24" height="24">
<path d="M12 12H36V36H12V12Z" fill="white"/>
</mask>
<g mask="url(#mask0_171_4095)">
<path d="M27.0564 22.9406L21.994 21.4594C21.4081 21.2906 21.0002 20.7422 21.0002 20.1328C21.0002 19.3687 21.619 18.75 22.383 18.75H25.4908C26.0627 18.75 26.6252 18.9234 27.094 19.2422C27.3799 19.4344 27.7643 19.3875 28.008 19.1484L29.6393 17.5547C29.9721 17.2312 29.9252 16.6922 29.5549 16.4062C28.4064 15.5062 26.9721 15.0047 25.5002 15V12.75C25.5002 12.3375 25.1627 12 24.7502 12H23.2502C22.8377 12 22.5002 12.3375 22.5002 12.75V15H22.383C19.3971 15 16.9971 17.5641 17.2737 20.6062C17.4706 22.7672 19.1206 24.525 21.2018 25.1344L26.0065 26.5406C26.5924 26.7141 27.0002 27.2578 27.0002 27.8672C27.0002 28.6313 26.3815 29.25 25.6174 29.25H22.5096C21.9377 29.25 21.3752 29.0766 20.9065 28.7578C20.6206 28.5656 20.2362 28.6125 19.9924 28.8516L18.3612 30.4453C18.0284 30.7687 18.0752 31.3078 18.4456 31.5938C19.594 32.4937 21.0284 32.9953 22.5002 33V35.25C22.5002 35.6625 22.8377 36 23.2502 36H24.7502C25.1627 36 25.5002 35.6625 25.5002 35.25V32.9906C27.6846 32.9484 29.733 31.65 30.4549 29.5828C31.4627 26.6953 29.7705 23.7328 27.0564 22.9406Z" fill="#3E065F"/>
</g>
</svg>
