<svg width="32" height="32" viewBox="0 0 32 32" fill="none" xmlns="http://www.w3.org/2000/svg">
<path d="M16.0007 18.6666C18.9421 18.6666 21.3341 16.2746 21.3341 13.3333C21.3341 10.392 18.9421 7.99996 16.0007 7.99996C13.0594 7.99996 10.6674 10.392 10.6674 13.3333C10.6674 16.2746 13.0594 18.6666 16.0007 18.6666ZM16.0007 10.6666C17.4714 10.6666 18.6674 11.8626 18.6674 13.3333C18.6674 14.804 17.4714 16 16.0007 16C14.5301 16 13.3341 14.804 13.3341 13.3333C13.3341 11.8626 14.5301 10.6666 16.0007 10.6666ZM15.2274 29.0853C15.4531 29.2464 15.7235 29.3331 16.0008 29.3331C16.2781 29.3331 16.5484 29.2464 16.7741 29.0853C17.1794 28.7986 26.7061 21.92 26.6674 13.3333C26.6674 7.45196 21.8821 2.66663 16.0008 2.66663C10.1194 2.66663 5.3341 7.45196 5.3341 13.3266C5.29544 21.92 14.8221 28.7986 15.2274 29.0853ZM16.0008 5.33329C20.4128 5.33329 24.0008 8.92129 24.0008 13.34C24.0288 19.2573 18.1501 24.5706 16.0008 26.3133C13.8528 24.5693 7.97277 19.2546 8.00077 13.3333C8.00077 8.92129 11.5888 5.33329 16.0008 5.33329Z" fill="#FBF5FF"/>
<path d="M16.0007 18.6666C18.9421 18.6666 21.3341 16.2746 21.3341 13.3333C21.3341 10.392 18.9421 7.99996 16.0007 7.99996C13.0594 7.99996 10.6674 10.392 10.6674 13.3333C10.6674 16.2746 13.0594 18.6666 16.0007 18.6666ZM16.0007 10.6666C17.4714 10.6666 18.6674 11.8626 18.6674 13.3333C18.6674 14.804 17.4714 16 16.0007 16C14.5301 16 13.3341 14.804 13.3341 13.3333C13.3341 11.8626 14.5301 10.6666 16.0007 10.6666ZM15.2274 29.0853C15.4531 29.2464 15.7235 29.3331 16.0008 29.3331C16.2781 29.3331 16.5484 29.2464 16.7741 29.0853C17.1794 28.7986 26.7061 21.92 26.6674 13.3333C26.6674 7.45196 21.8821 2.66663 16.0008 2.66663C10.1194 2.66663 5.3341 7.45196 5.3341 13.3266C5.29544 21.92 14.8221 28.7986 15.2274 29.0853ZM16.0008 5.33329C20.4128 5.33329 24.0008 8.92129 24.0008 13.34C24.0288 19.2573 18.1501 24.5706 16.0008 26.3133C13.8528 24.5693 7.97277 19.2546 8.00077 13.3333C8.00077 8.92129 11.5888 5.33329 16.0008 5.33329Z" fill="#FBF5FF"/>
</svg>
