<svg width="32" height="32" viewBox="0 0 32 32" fill="none" xmlns="http://www.w3.org/2000/svg">
<mask id="mask0_371_403" style="mask-type:alpha" maskUnits="userSpaceOnUse" x="0" y="0" width="32" height="32">
<rect width="32" height="32" fill="#D9D9D9"/>
</mask>
<g mask="url(#mask0_371_403)">
<path d="M15.9988 29.3333C14.3322 29.3333 12.7711 29.0166 11.3155 28.3833C9.85994 27.75 8.59327 26.8944 7.5155 25.8166C6.43772 24.7389 5.58216 23.4722 4.94883 22.0166C4.3155 20.5611 3.99883 19 3.99883 17.3333C3.99883 15.6666 4.3155 14.1055 4.94883 12.65C5.58216 11.1944 6.43772 9.92774 7.5155 8.84997C8.59327 7.77219 9.85994 6.91663 11.3155 6.2833C12.7711 5.64997 14.3322 5.3333 15.9988 5.3333C17.6655 5.3333 19.2266 5.64997 20.6822 6.2833C22.1377 6.91663 23.4044 7.77219 24.4822 8.84997C25.5599 9.92774 26.4155 11.1944 27.0488 12.65C27.6822 14.1055 27.9988 15.6666 27.9988 17.3333C27.9988 19 27.6822 20.5611 27.0488 22.0166C26.4155 23.4722 25.5599 24.7389 24.4822 25.8166C23.4044 26.8944 22.1377 27.75 20.6822 28.3833C19.2266 29.0166 17.6655 29.3333 15.9988 29.3333ZM19.7322 22.9333L21.5988 21.0666L17.3322 16.8V10.6666H14.6655V17.8666L19.7322 22.9333ZM7.4655 3.1333L9.33216 4.99997L3.66549 10.6666L1.79883 8.79997L7.4655 3.1333ZM24.5322 3.1333L30.1988 8.79997L28.3322 10.6666L22.6655 4.99997L24.5322 3.1333ZM15.9988 26.6666C18.5988 26.6666 20.8044 25.7611 22.6155 23.95C24.4266 22.1389 25.3322 19.9333 25.3322 17.3333C25.3322 14.7333 24.4266 12.5277 22.6155 10.7166C20.8044 8.90552 18.5988 7.99997 15.9988 7.99997C13.3988 7.99997 11.1933 8.90552 9.38216 10.7166C7.57105 12.5277 6.6655 14.7333 6.6655 17.3333C6.6655 19.9333 7.57105 22.1389 9.38216 23.95C11.1933 25.7611 13.3988 26.6666 15.9988 26.6666Z" fill="white"/>
</g>
</svg>
