<svg width="19" height="18" viewBox="0 0 19 18" fill="none" xmlns="http://www.w3.org/2000/svg">
<path d="M16.1122 7.4769L16.1025 7.52544V7.52844L16.0842 7.53761L16.0284 7.59206L12.9534 10.5921L12.7645 10.7764L12.8101 11.0364L13.5596 15.3088C13.585 15.4655 13.4946 15.5857 13.3886 15.625H13.3884H13.3882H13.388H13.3878H13.3875H13.3873H13.3871H13.3869H13.3866H13.3864H13.3862H13.3859H13.3857H13.3855H13.3853H13.3851H13.3848H13.3846H13.3844H13.3842H13.3839H13.3837H13.3835H13.3833H13.383H13.3828H13.3826H13.3824H13.3822H13.3819H13.3817H13.3815H13.3813H13.3811H13.3808H13.3806H13.3804H13.3802H13.38H13.3797H13.3795H13.3793H13.3791H13.3789H13.3786H13.3784H13.3782H13.378H13.3778H13.3775H13.3773H13.3771H13.3769H13.3767H13.3764H13.3762H13.376H13.3758H13.3756H13.3753H13.3751H13.3749H13.3747H13.3745H13.3742H13.374H13.3738H13.3736H13.3734H13.3731H13.3729H13.3727H13.3725H13.3722H13.372H13.3718H13.3716H13.3714H13.3711H13.3709H13.3707H13.3705H13.3702H13.37H13.3698H13.3696H13.3694H13.3691H13.3689H13.3687H13.3685H13.3682H13.368H13.3678H13.3675H13.3673H13.3671H13.3669H13.3666H13.3664H13.3662H13.366H13.3657H13.3655H13.3653H13.365H13.3648H13.3646H13.3643H13.3641H13.3639H13.3636H13.3634H13.3632H13.3629H13.3627H13.3625H13.3622H13.362H13.3618H13.3615H13.3613H13.3611H13.3608H13.3606H13.3603H13.3601H13.3599H13.3596H13.3594H13.3591H13.3589H13.3587H13.3584H13.3582H13.3579H13.3577H13.3574H13.3572H13.3569H13.3567H13.3565H13.3562H13.356H13.3557H13.3555H13.3552H13.355H13.3547H13.3544H13.3542H13.3539H13.3537H13.3534H13.3532H13.3529H13.3527H13.3524H13.3521H13.3519H13.3516H13.3514H13.3511H13.3508H13.3506H13.3503H13.35H13.3498H13.3495H13.3492H13.349H13.3487H13.3484H13.3482H13.3479H13.3476H13.3473H13.3471H13.3468H13.3465H13.3462H13.346H13.3457H13.3454H13.3451H13.3448H13.3446H13.3443H13.344H13.3437H13.3434H13.3431H13.3428H13.3426H13.3423H13.342H13.3417H13.3414H13.3411H13.3408H13.3405H13.3402H13.3399H13.3396H13.3393H13.339H13.3387H13.3384H13.3381H13.3378H13.3375H13.3372H13.3369H13.3366H13.3363H13.336H13.3356H13.3353H13.335H13.3347H13.3344H13.3341H13.3337H13.3334H13.3331H13.3328H13.3324H13.3321H13.3318H13.3315H13.3311H13.3308H13.3305H13.3301H13.3298H13.3295H13.3291H13.3288H13.3285H13.3281H13.3278H13.3274H13.3271H13.3268H13.3264H13.3261H13.3257H13.3254H13.325H13.3247H13.3243H13.3239H13.3236H13.3232H13.3229H13.3225H13.3221H13.3218H13.3214H13.321H13.3207H13.3203H13.3199H13.3196H13.3192H13.3188H13.3184H13.3181H13.3177H13.3173H13.3169H13.3165H13.3161H13.3158H13.3154H13.315H13.3146H13.3142H13.3138H13.3134H13.313H13.3126H13.3122H13.3118H13.3114H13.311H13.3106H13.3102H13.3098H13.3094H13.3089H13.3085H13.3081H13.3077H13.3073H13.3068H13.3064H13.306H13.3056H13.3051H13.3047H13.3043H13.3038H13.3034H13.303H13.3025C13.2635 15.625 13.2342 15.6249 13.2073 15.624C13.2011 15.6238 13.1954 15.6236 13.1904 15.6233L13.1615 15.6081L9.33648 13.5831L9.10254 13.4592L8.8686 13.5831L5.0436 15.6081L5.03177 15.6143L5.02029 15.6212C4.95714 15.6591 4.89693 15.6631 4.83996 15.646C4.7833 15.629 4.719 15.5868 4.66834 15.5117C4.65892 15.486 4.65376 15.4472 4.65273 15.3424L5.39502 11.1114L5.44063 10.8514L5.2517 10.6671L2.17939 7.66969C2.07636 7.56521 2.07692 7.43268 2.18109 7.32851L2.23847 7.27113L2.24859 7.25089C2.2567 7.25032 2.26631 7.24995 2.27754 7.24995H2.31246L2.34703 7.2451L6.62203 6.6451L6.88716 6.60789L7.00317 6.3666L8.86625 2.49139C8.91722 2.41431 8.98251 2.3711 9.03996 2.35387C9.09693 2.33678 9.15714 2.34081 9.22029 2.3787L9.23676 2.38858L9.25393 2.39717C9.28728 2.41384 9.29938 2.42303 9.30212 2.42537C9.30446 2.42811 9.31365 2.4402 9.33032 2.47356L11.2803 6.37356L11.3978 6.60858L11.658 6.6451L15.933 7.2451L15.9676 7.24995H15.9973C16.0027 7.25171 16.0287 7.26184 16.0628 7.31017C16.0839 7.34007 16.0996 7.37453 16.1077 7.4077C16.1159 7.44089 16.1147 7.46442 16.1122 7.4769Z" stroke="#DDB3FF"/>
</svg>
