<svg width="48" height="48" viewBox="0 0 48 48" fill="none" xmlns="http://www.w3.org/2000/svg">
<rect width="48" height="48" rx="24" fill="#FBF5FF"/>
<mask id="mask0_171_4105" style="mask-type:luminance" maskUnits="userSpaceOnUse" x="12" y="12" width="24" height="24">
<path d="M12 12H36V36H12V12Z" fill="white"/>
</mask>
<g mask="url(#mask0_171_4105)">
<path d="M24 12.375C17.5781 12.375 12.375 17.5781 12.375 24C12.375 30.4219 17.5781 35.625 24 35.625C30.4219 35.625 35.625 30.4219 35.625 24C35.625 17.5781 30.4219 12.375 24 12.375ZM28.3355 27.0469L27.398 28.2188C27.2737 28.3741 27.0928 28.4737 26.8951 28.4957C26.6974 28.5177 26.4991 28.4602 26.3438 28.3359L23.2031 26.0053C22.7586 25.6494 22.4999 25.1108 22.5 24.5414V17.25C22.5 16.8358 22.8358 16.5 23.25 16.5H24.75C25.1639 16.5 25.5 16.8361 25.5 17.25V24L28.2188 25.9922C28.3742 26.1165 28.4738 26.2975 28.4957 26.4953C28.5176 26.6932 28.4599 26.8916 28.3355 27.0469Z" fill="#3E065F"/>
</g>
</svg>
