<svg width="19" height="18" viewBox="0 0 19 18" fill="none" xmlns="http://www.w3.org/2000/svg">
<path fill-rule="evenodd" clip-rule="evenodd" d="M13.034 5.40246C12.7731 5.17655 12.3784 5.20498 12.1525 5.46596L8.2594 9.96331L6.81238 8.54574C6.56581 8.30419 6.1701 8.30825 5.92854 8.55482C5.68699 8.80138 5.69105 9.19711 5.93762 9.43861L7.85949 11.3215C7.86867 11.3304 7.87811 11.3391 7.88783 11.3475C7.91885 11.3744 7.9522 11.398 7.98787 11.4183C8.02354 11.4386 8.06085 11.4552 8.0998 11.4681C8.13874 11.481 8.17857 11.4901 8.2193 11.4952C8.26002 11.5003 8.30084 11.5013 8.34177 11.4984C8.3827 11.4955 8.42295 11.4885 8.46253 11.4776C8.50209 11.4667 8.54022 11.4521 8.57692 11.4337C8.6136 11.4154 8.64814 11.3936 8.68054 11.3684C8.71294 11.3432 8.74256 11.3151 8.76942 11.284L13.0975 6.28406C13.3235 6.02308 13.295 5.62837 13.034 5.40246Z" fill="#B354F8"/>
<path fill-rule="evenodd" clip-rule="evenodd" d="M18.1899 3.21363C18.2041 3.26169 18.2125 3.31185 18.2146 3.36317C18.3639 5.75656 18.0456 7.95581 17.2596 9.9609C16.6205 11.5911 15.6883 13.0562 14.4631 14.3561C13.569 15.3047 12.5598 16.1256 11.4354 16.8189C10.8102 17.2044 10.243 17.4997 9.73369 17.7048C9.65876 17.7349 9.58092 17.75 9.50019 17.75C9.41944 17.75 9.34161 17.7349 9.26671 17.7048C8.75743 17.4997 8.1902 17.2044 7.56503 16.8189C6.4406 16.1256 5.43134 15.3047 4.53726 14.3561C3.31205 13.0562 2.3799 11.5911 1.74083 9.9609C0.953338 7.95216 0.635258 5.74856 0.786591 3.3501C0.788778 3.31545 0.793814 3.28121 0.801701 3.24739C0.809594 3.21358 0.820231 3.18065 0.833611 3.14861C0.846991 3.11657 0.862931 3.08586 0.881431 3.05647C0.899931 3.02708 0.920738 2.99943 0.943851 2.97352C0.966958 2.9476 0.992051 2.92377 1.01913 2.90204C1.04621 2.88031 1.0749 2.86096 1.1052 2.84401C1.13551 2.82706 1.167 2.81273 1.19969 2.80102C1.23238 2.78932 1.26582 2.7804 1.3 2.77427C3.00459 2.4685 4.37009 2.15529 5.39648 1.83464C6.39206 1.52361 7.67422 1.01386 9.24295 0.30539C9.32472 0.268463 9.41046 0.25 9.50019 0.25C9.58992 0.25 9.67566 0.268463 9.75739 0.30539C11.3261 1.01386 12.6083 1.52361 13.6039 1.83464C14.6278 2.1545 15.989 2.46695 17.6877 2.772C17.739 2.78005 17.7883 2.79439 17.8348 2.81423C18.0044 2.88657 18.1369 3.03213 18.1899 3.21363ZM16.9902 3.9149C15.4586 3.62789 14.2056 3.33218 13.2312 3.02777C12.2432 2.71912 10.9995 2.22991 9.50019 1.56015C8.00084 2.22991 6.75719 2.71912 5.76923 3.02777C4.79481 3.33218 3.54181 3.62789 2.01024 3.9149C1.93949 5.94005 2.23761 7.80332 2.9046 9.5047C3.48483 10.9848 4.33227 12.3161 5.44691 13.4987C6.26554 14.3673 7.19026 15.1194 8.22107 15.7549C8.68908 16.0434 9.11546 16.2738 9.50019 16.4459C9.88492 16.2738 10.3113 16.0434 10.7793 15.7549C11.8101 15.1194 12.7348 14.3673 13.5535 13.4987C14.6681 12.3161 15.5155 10.9848 16.0958 9.5047C16.7628 7.80333 17.0609 5.94006 16.9902 3.9149Z" fill="#B354F8"/>
</svg>
