<svg width="17" height="16" viewBox="0 0 17 16" fill="none" xmlns="http://www.w3.org/2000/svg">
<path d="M14.815 13.3516L10.7572 9.29375C11.3869 8.47969 11.7275 7.48438 11.7275 6.4375C11.7275 5.18438 11.2385 4.00937 10.3541 3.12344C9.46973 2.2375 8.2916 1.75 7.04004 1.75C5.78848 1.75 4.61035 2.23906 3.72598 3.12344C2.84004 4.00781 2.35254 5.18438 2.35254 6.4375C2.35254 7.68906 2.8416 8.86719 3.72598 9.75156C4.61035 10.6375 5.78691 11.125 7.04004 11.125C8.08691 11.125 9.08066 10.7844 9.89473 10.1562L13.9525 14.2125C13.9644 14.2244 13.9786 14.2338 13.9941 14.2403C14.0097 14.2467 14.0263 14.2501 14.0432 14.2501C14.06 14.2501 14.0767 14.2467 14.0922 14.2403C14.1078 14.2338 14.1219 14.2244 14.1338 14.2125L14.815 13.5328C14.8269 13.5209 14.8364 13.5068 14.8428 13.4912C14.8493 13.4757 14.8526 13.459 14.8526 13.4422C14.8526 13.4254 14.8493 13.4087 14.8428 13.3931C14.8364 13.3776 14.8269 13.3635 14.815 13.3516V13.3516ZM9.51504 8.9125C8.85254 9.57344 7.97441 9.9375 7.04004 9.9375C6.10566 9.9375 5.22754 9.57344 4.56504 8.9125C3.9041 8.25 3.54004 7.37187 3.54004 6.4375C3.54004 5.50313 3.9041 4.62344 4.56504 3.9625C5.22754 3.30156 6.10566 2.9375 7.04004 2.9375C7.97441 2.9375 8.8541 3.3 9.51504 3.9625C10.176 4.625 10.54 5.50313 10.54 6.4375C10.54 7.37187 10.176 8.25156 9.51504 8.9125Z" fill="white"/>
</svg>
