<svg width="17" height="16" viewBox="0 0 17 16" fill="none" xmlns="http://www.w3.org/2000/svg">
<path d="M14.315 13.3516L10.2572 9.29375C10.8869 8.47969 11.2275 7.48438 11.2275 6.4375C11.2275 5.18438 10.7385 4.00937 9.8541 3.12344C8.96973 2.2375 7.7916 1.75 6.54004 1.75C5.28848 1.75 4.11035 2.23906 3.22598 3.12344C2.34004 4.00781 1.85254 5.18438 1.85254 6.4375C1.85254 7.68906 2.3416 8.86719 3.22598 9.75156C4.11035 10.6375 5.28691 11.125 6.54004 11.125C7.58691 11.125 8.58066 10.7844 9.39473 10.1562L13.4525 14.2125C13.4644 14.2244 13.4786 14.2338 13.4941 14.2403C13.5097 14.2467 13.5263 14.2501 13.5432 14.2501C13.56 14.2501 13.5767 14.2467 13.5922 14.2403C13.6078 14.2338 13.6219 14.2244 13.6338 14.2125L14.315 13.5328C14.3269 13.5209 14.3364 13.5068 14.3428 13.4912C14.3493 13.4757 14.3526 13.459 14.3526 13.4422C14.3526 13.4254 14.3493 13.4087 14.3428 13.3931C14.3364 13.3776 14.3269 13.3635 14.315 13.3516V13.3516ZM9.01504 8.9125C8.35254 9.57344 7.47441 9.9375 6.54004 9.9375C5.60566 9.9375 4.72754 9.57344 4.06504 8.9125C3.4041 8.25 3.04004 7.37187 3.04004 6.4375C3.04004 5.50313 3.4041 4.62344 4.06504 3.9625C4.72754 3.30156 5.60566 2.9375 6.54004 2.9375C7.47441 2.9375 8.3541 3.3 9.01504 3.9625C9.67598 4.625 10.04 5.50313 10.04 6.4375C10.04 7.37187 9.67598 8.25156 9.01504 8.9125Z" fill="black" fill-opacity="0.88"/>
</svg>
