<svg width="17" height="16" viewBox="0 0 17 16" fill="none" xmlns="http://www.w3.org/2000/svg">
<path d="M14.7125 13.3516L10.6547 9.29375C11.2844 8.47969 11.625 7.48438 11.625 6.4375C11.625 5.18438 11.1359 4.00937 10.2516 3.12344C9.36719 2.2375 8.18906 1.75 6.9375 1.75C5.68594 1.75 4.50781 2.23906 3.62344 3.12344C2.7375 4.00781 2.25 5.18438 2.25 6.4375C2.25 7.68906 2.73906 8.86719 3.62344 9.75156C4.50781 10.6375 5.68438 11.125 6.9375 11.125C7.98438 11.125 8.97813 10.7844 9.79219 10.1562L13.85 14.2125C13.8619 14.2244 13.876 14.2338 13.8916 14.2403C13.9071 14.2467 13.9238 14.2501 13.9406 14.2501C13.9575 14.2501 13.9741 14.2467 13.9897 14.2403C14.0052 14.2338 14.0194 14.2244 14.0312 14.2125L14.7125 13.5328C14.7244 13.5209 14.7338 13.5068 14.7403 13.4912C14.7467 13.4757 14.7501 13.459 14.7501 13.4422C14.7501 13.4254 14.7467 13.4087 14.7403 13.3931C14.7338 13.3776 14.7244 13.3635 14.7125 13.3516V13.3516ZM9.4125 8.9125C8.75 9.57344 7.87187 9.9375 6.9375 9.9375C6.00313 9.9375 5.125 9.57344 4.4625 8.9125C3.80156 8.25 3.4375 7.37187 3.4375 6.4375C3.4375 5.50313 3.80156 4.62344 4.4625 3.9625C5.125 3.30156 6.00313 2.9375 6.9375 2.9375C7.87187 2.9375 8.75156 3.3 9.4125 3.9625C10.0734 4.625 10.4375 5.50313 10.4375 6.4375C10.4375 7.37187 10.0734 8.25156 9.4125 8.9125Z" fill="black" fill-opacity="0.88"/>
</svg>
