<svg width="48" height="48" viewBox="0 0 48 48" fill="none" xmlns="http://www.w3.org/2000/svg">
<g clip-path="url(#clip0_186_2169)">
<path d="M46.1033 7.606C46.1033 7.606 37.6065 2.38262 25.156 1.52631C25.1508 1.62886 25.163 1.75021 25.2209 1.89892C25.398 2.36382 25.5768 2.78087 25.3313 3.09879C25.1455 3.33808 24.3688 3.62694 24.0023 3.75342C23.6359 3.62694 22.8591 3.33808 22.6733 3.09879C22.4278 2.78258 22.6049 2.36382 22.7837 1.89892C22.8398 1.75192 22.8539 1.62886 22.8486 1.52631C10.3946 2.38433 1.89786 7.606 1.89786 7.606C1.89786 7.606 -0.0430992 36.6422 24.0006 48C48.0442 36.6422 46.1033 7.606 46.1033 7.606ZM24.0006 43.9525C3.45308 34.1775 5.11174 9.18703 5.11174 9.18703C5.11174 9.18703 12.8247 4.41147 24.0006 3.89699C35.1764 4.41147 42.8894 9.18703 42.8894 9.18703C42.8894 9.18703 44.548 34.1792 24.0006 43.9525Z" fill="#DDB3FF"/>
<path d="M44.1698 8.63156C44.1698 8.63156 36.5392 3.94146 25.3248 3.10394C25.1302 3.34152 24.364 3.62696 24.001 3.75174C23.6381 3.62696 22.8736 3.34152 22.6772 3.10394C11.4646 3.94146 3.83402 8.63156 3.83402 8.63156C3.83402 8.63156 2.06314 35.1262 24.001 45.4892C45.9407 35.1262 44.168 8.63156 44.168 8.63156H44.1698ZM24.001 43.9526C3.45354 34.1775 5.11221 9.18705 5.11221 9.18705C5.11221 9.18705 12.8252 4.4115 24.001 3.89702C35.1769 4.4115 42.8898 9.18705 42.8898 9.18705C42.8898 9.18705 44.5485 34.1793 24.001 43.9526Z" fill="#8A21CF"/>
<path d="M46.1029 7.606C46.1029 7.606 37.6062 2.38262 25.1557 1.52631C25.1504 1.62886 25.1627 1.75021 25.2205 1.89892C25.3976 2.36382 25.5765 2.78087 25.331 3.09879C25.331 3.1005 25.3275 3.10392 25.324 3.10562C36.5366 3.94314 44.169 8.63324 44.169 8.63324C44.169 8.63324 45.9398 35.1278 24.002 45.4908V48.0017C48.0456 36.6439 46.1047 7.60771 46.1047 7.60771L46.1029 7.606Z" fill="#DDB3FF"/>
<path d="M30.2354 7.23512C28.5961 6.34633 26.4061 5.8028 24.0005 5.8028C21.5949 5.8028 19.405 6.34633 17.7656 7.23512C19.405 8.12392 21.5949 8.66745 24.0005 8.66745C26.4061 8.66745 28.5961 8.12392 30.2354 7.23512Z" fill="#DDB3FF"/>
<path d="M31.2729 10.3339C31.2027 10.2092 31.0905 10.1135 30.9941 10.0075C30.9257 9.93399 30.8661 9.85366 30.81 9.7699V8.38544C29.1566 9.25885 26.7229 9.81776 24 9.84169C21.2788 9.81947 18.8451 9.26056 17.19 8.38544V9.7699C17.1356 9.85366 17.0743 9.93399 17.0059 10.0075C16.9077 10.1135 16.7972 10.2092 16.7271 10.3339C16.3747 10.9612 16.6009 12.0791 16.7692 12.7286C16.9848 13.561 17.3864 14.3455 17.9457 15.0087C18.1315 15.2291 18.3367 15.4394 18.4752 15.6906C18.619 15.9504 18.6873 16.2444 18.7925 16.5213C19.4413 18.222 20.844 19.627 22.6219 20.2098C23.0637 20.3551 23.5318 20.4337 23.9965 20.4303C24.4611 20.4354 24.931 20.3551 25.3711 20.2098C27.149 19.627 28.5517 18.222 29.2004 16.5213C29.3056 16.2444 29.374 15.9504 29.5178 15.6906C29.6563 15.4394 29.8614 15.2291 30.0473 15.0087C30.6066 14.3455 31.0081 13.561 31.2238 12.7286C31.3921 12.0791 31.6183 10.9612 31.2659 10.3339H31.2729Z" fill="#DDB3FF"/>
<path d="M31.8537 4.29698C31.7082 4.00983 31.5398 3.73464 31.354 3.47142C30.5843 2.38778 29.5007 1.5383 28.2926 0.957163C26.9636 0.317915 25.4803 0.00341844 24.0004 0C22.5206 0.00341844 21.0373 0.317915 19.7083 0.957163C18.5002 1.53659 17.4166 2.38778 16.6469 3.47142C16.4593 3.73464 16.2927 4.00983 16.1472 4.29698C15.9105 4.7653 15.7597 5.1721 15.7965 5.69512C15.8088 5.8763 15.8421 6.54973 16.177 6.44888C18.2109 5.25756 20.9672 4.5243 24.0022 4.52088C27.0372 4.5243 29.7935 5.25756 31.8274 6.44888C32.1623 6.54802 32.1938 5.87459 32.2079 5.69512C32.2447 5.1721 32.0939 4.76359 31.8572 4.29698H31.8537ZM25.6293 1.18791H25.2734C25.2734 1.18791 25.0437 1.43233 25.2208 1.89723C25.3979 2.36214 25.5767 2.77919 25.3312 3.09711C25.1454 3.3364 24.3687 3.62525 24.0022 3.75174C23.6358 3.62525 22.859 3.3364 22.6732 3.09711C22.4277 2.7809 22.6048 2.36214 22.7836 1.89723C22.9625 1.43233 22.731 1.18791 22.731 1.18791H22.3751V0.712744H25.6311V1.18791H25.6293Z" fill="#DDB3FF"/>
<path d="M36.7403 30.689C36.2494 30.8104 35.7532 30.9129 35.2553 31.0035C36.714 29.255 38.2061 27.2142 39.0337 26.0553C38.8461 25.4759 38.6164 24.9067 38.3411 24.3495C38.2096 24.0829 38.0659 23.8282 37.9151 23.5787C37.2436 22.4677 36.3616 21.5396 35.143 20.9619C33.3231 20.0987 31.4452 19.3552 29.5832 18.5792C29.4622 18.5279 29.1974 18.5997 29.1133 18.704C28.8608 19.0151 28.6171 19.3484 28.4558 19.7107C27.8193 21.1311 27.2179 22.5668 26.5955 23.994C26.5411 24.1171 26.4254 24.2145 26.3377 24.3222C26.2255 24.2333 26.094 24.1615 26.0063 24.0538C25.4383 23.3479 24.8825 22.6335 24.3161 21.9259C24.1688 21.7413 24.0812 21.6473 23.9988 21.6353C23.9164 21.6473 23.8304 21.7413 23.6814 21.9259C23.1151 22.6335 22.561 23.3479 21.9912 24.0538C21.9053 24.1615 21.772 24.2333 21.6598 24.3222C21.5721 24.2128 21.4564 24.1171 21.4021 23.994C20.7796 22.5668 20.1782 21.1311 19.5418 19.7107C19.3804 19.3501 19.1367 19.0151 18.8842 18.704C18.8001 18.6014 18.5371 18.5296 18.4144 18.5792C16.5523 19.3552 14.6745 20.0987 12.8545 20.9619C11.6359 21.5396 10.754 22.4677 10.0824 23.5787C9.93166 23.8282 9.78788 24.0846 9.65638 24.3495C9.38286 24.9085 9.15142 25.4759 8.96381 26.0553C9.79139 27.2142 11.2852 29.255 12.7423 31.0035C12.2426 30.9112 11.7464 30.8104 11.2572 30.689C10.5295 30.0891 9.72301 29.3473 8.89367 28.4431L7.94336 29.2037C10.8416 35.4031 15.7387 41.5887 23.997 45.4892V43.9526C30.9964 40.623 35.4166 35.5278 38.2061 30.2566C38.5252 29.6532 38.8233 29.0482 39.1003 28.4431C38.271 29.3473 37.4645 30.0908 36.7368 30.689H36.7403ZM18.9246 27.0911H14.0906V25.9237H18.9246V27.0911ZM31.5364 28.9866L29.1974 30.1848L29.6445 27.6466L27.7527 25.8485L30.3669 25.4776L31.5364 23.1685L32.7059 25.4776L35.3201 25.8485L33.4283 27.6466L33.8754 30.1848L31.5364 28.9866Z" fill="#DDB3FF"/>
<path d="M40.0525 29.9686L39.1022 29.208C38.2728 30.1122 37.4663 30.8557 36.7386 31.4539C36.2477 31.5753 35.7515 31.6778 35.2536 31.7684C36.7123 30.0199 38.2044 27.9791 39.032 26.8202C38.8444 26.2408 38.6147 25.6716 38.3395 25.1144C38.208 24.8478 38.0642 24.5931 37.9134 24.3436C37.2419 23.2326 36.3599 22.3045 35.1413 21.7268C33.3214 20.8636 31.4435 20.1201 29.5815 19.3441C29.4605 19.2928 29.1957 19.3646 29.1116 19.4689C28.8591 19.78 28.6154 20.1133 28.4541 20.4756C27.8176 21.896 27.2162 23.3317 26.5938 24.7589C26.5394 24.882 26.4237 24.9794 26.336 25.0871C26.2238 24.9982 26.0906 24.9264 26.0047 24.8187C25.4366 24.1128 24.8808 23.3984 24.3144 22.6908C24.1671 22.5062 24.0795 22.4122 23.9971 22.4002V44.7158V48.7632C32.9549 44.5312 38.3061 37.8464 41.4937 31.1223L40.0525 29.9669V29.9686ZM31.533 29.7515L29.194 30.9497L29.6411 28.4115L27.7492 26.6134L30.3635 26.2425L31.533 23.9334L32.7024 26.2425L35.3167 26.6134L33.4248 28.4115L33.8719 30.9497L31.533 29.7515Z" fill="#8A21CF"/>
<path d="M23.9971 6.56769V9.43234C26.4027 9.43234 28.5926 8.88881 30.232 8.00001C28.5926 7.11122 26.4027 6.56769 23.9971 6.56769Z" fill="#8A21CF"/>
<path d="M29.2028 17.2862C29.308 17.0093 29.3763 16.7153 29.5201 16.4555C29.6586 16.2043 29.8638 15.994 30.0514 15.7736C30.6107 15.1104 31.0122 14.3258 31.2279 13.4935C31.3962 12.844 31.6224 11.7261 31.27 11.0988C31.1998 10.9741 31.0876 10.8783 30.9912 10.7724C30.9228 10.6989 30.8632 10.6185 30.8071 10.5348V9.15033C29.1537 10.0237 26.72 10.5827 23.9971 10.6066V21.1969C24.4617 21.202 24.9316 21.1217 25.3717 20.9764C27.1496 20.3936 28.5523 18.9886 29.201 17.2879L29.2028 17.2862Z" fill="#8A21CF"/>
<path d="M31.8503 5.06187C31.7048 4.77472 31.5365 4.49954 31.3506 4.23632C30.5809 3.15267 29.4973 2.30319 28.2893 1.72206C26.9602 1.08281 25.4769 0.768311 23.9971 0.764893V1.47935H25.6242V1.95451H25.2682C25.2682 1.95451 25.0386 2.19893 25.2156 2.66384C25.3927 3.12874 25.5716 3.54579 25.3261 3.86371C25.1403 4.103 24.3635 4.39186 23.9971 4.51834V5.28749C27.0321 5.29261 29.7884 6.02416 31.8223 7.21549C32.1571 7.31633 32.1887 6.64119 32.2027 6.46172C32.2396 5.9387 32.0888 5.5302 31.8521 5.06358L31.8503 5.06187Z" fill="#8A21CF"/>
</g>
<defs>
<clipPath id="clip0_186_2169">
<rect width="48" height="48" fill="white"/>
</clipPath>
</defs>
</svg>
