<svg width="49" height="48" viewBox="0 0 49 48" fill="none" xmlns="http://www.w3.org/2000/svg">
<g clip-path="url(#clip0_186_2081)">
<path d="M46.2058 7.606C46.2058 7.606 37.7091 2.38262 25.2586 1.52631C25.2533 1.62886 25.2656 1.75021 25.3234 1.89892C25.5005 2.36382 25.6794 2.78087 25.4339 3.09879C25.248 3.33808 24.4713 3.62694 24.1049 3.75342C23.7384 3.62694 22.9617 3.33808 22.7758 3.09879C22.5303 2.78258 22.7074 2.36382 22.8863 1.89892C22.9424 1.75192 22.9564 1.62886 22.9511 1.52631C10.4971 2.38433 2.0004 7.606 2.0004 7.606C2.0004 7.606 0.0594399 36.6422 24.1031 48C48.1468 36.6422 46.2058 7.606 46.2058 7.606ZM24.1031 43.9525C3.55562 34.1775 5.21428 9.18703 5.21428 9.18703C5.21428 9.18703 12.9273 4.41147 24.1031 3.89699C35.2789 4.41147 42.9919 9.18703 42.9919 9.18703C42.9919 9.18703 44.6506 34.1792 24.1031 43.9525Z" fill="#DDB3FF"/>
<path d="M44.2723 8.63156C44.2723 8.63156 36.6418 3.94146 25.4273 3.10394C25.2327 3.34152 24.4665 3.62696 24.1036 3.75174C23.7406 3.62696 22.9762 3.34152 22.7798 3.10394C11.5671 3.94146 3.93656 8.63156 3.93656 8.63156C3.93656 8.63156 2.16568 35.1262 24.1036 45.4892C46.0432 35.1262 44.2706 8.63156 44.2706 8.63156H44.2723ZM24.1036 43.9526C3.55608 34.1775 5.21475 9.18705 5.21475 9.18705C5.21475 9.18705 12.9277 4.4115 24.1036 3.89702C35.2794 4.4115 42.9924 9.18705 42.9924 9.18705C42.9924 9.18705 44.651 34.1793 24.1036 43.9526Z" fill="#8A21CF"/>
<path d="M46.2054 7.606C46.2054 7.606 37.7087 2.38262 25.2582 1.52631C25.2529 1.62886 25.2652 1.75021 25.3231 1.89892C25.5002 2.36382 25.679 2.78087 25.4335 3.09879C25.4335 3.1005 25.43 3.10392 25.4265 3.10562C36.6392 3.94314 44.2715 8.63324 44.2715 8.63324C44.2715 8.63324 46.0424 35.1278 24.1045 45.4908V48.0017C48.1481 36.6439 46.2072 7.60771 46.2072 7.60771L46.2054 7.606Z" fill="#DDB3FF"/>
<path d="M30.338 7.23512C28.6986 6.34633 26.5087 5.8028 24.1031 5.8028C21.6975 5.8028 19.5075 6.34633 17.8682 7.23512C19.5075 8.12391 21.6975 8.66745 24.1031 8.66745C26.5087 8.66745 28.6986 8.12391 30.338 7.23512Z" fill="#DDB3FF"/>
<path d="M31.3754 10.3339C31.3053 10.2092 31.1931 10.1135 31.0966 10.0075C31.0282 9.93399 30.9686 9.85366 30.9125 9.7699V8.38544C29.2591 9.25885 26.8255 9.81776 24.1025 9.84169C21.3813 9.81947 18.9477 9.26056 17.2925 8.38544V9.7699C17.2382 9.85366 17.1768 9.93399 17.1084 10.0075C17.0102 10.1135 16.8998 10.2092 16.8296 10.3339C16.4772 10.9612 16.7034 12.0791 16.8717 12.7286C17.0874 13.561 17.4889 14.3455 18.0482 15.0087C18.2341 15.2291 18.4392 15.4394 18.5777 15.6906C18.7215 15.9504 18.7899 16.2444 18.8951 16.5213C19.5438 18.222 20.9465 19.627 22.7244 20.2098C23.1662 20.3551 23.6344 20.4337 24.099 20.4303C24.5637 20.4354 25.0336 20.3551 25.4736 20.2098C27.2515 19.627 28.6542 18.222 29.303 16.5213C29.4082 16.2444 29.4765 15.9504 29.6203 15.6906C29.7588 15.4394 29.964 15.2291 30.1498 15.0087C30.7091 14.3455 31.1107 13.561 31.3263 12.7286C31.4946 12.0791 31.7208 10.9612 31.3684 10.3339H31.3754Z" fill="#DDB3FF"/>
<path d="M31.9562 4.29698C31.8107 4.00983 31.6424 3.73464 31.4565 3.47142C30.6868 2.38778 29.6032 1.5383 28.3952 0.957163C27.0661 0.317915 25.5828 0.00341844 24.103 0C22.6232 0.00341844 21.1398 0.317915 19.8108 0.957163C18.6027 1.53659 17.5192 2.38778 16.7494 3.47142C16.5618 3.73464 16.3953 4.00983 16.2497 4.29698C16.013 4.7653 15.8623 5.1721 15.8991 5.69512C15.9113 5.8763 15.9447 6.54973 16.2796 6.44888C18.3134 5.25756 21.0697 4.5243 24.1047 4.52088C27.1398 4.5243 29.896 5.25756 31.9299 6.44888C32.2648 6.54802 32.2964 5.87459 32.3104 5.69512C32.3472 5.1721 32.1964 4.76359 31.9597 4.29698H31.9562ZM25.7318 1.18791H25.3759C25.3759 1.18791 25.1462 1.43233 25.3233 1.89723C25.5004 2.36214 25.6792 2.77919 25.4338 3.09711C25.2479 3.3364 24.4712 3.62525 24.1047 3.75174C23.7383 3.62525 22.9616 3.3364 22.7757 3.09711C22.5302 2.7809 22.7073 2.36214 22.8862 1.89723C23.065 1.43233 22.8336 1.18791 22.8336 1.18791H22.4776V0.712744H25.7336V1.18791H25.7318Z" fill="#DDB3FF"/>
<path d="M36.8429 30.689C36.3519 30.8104 35.8557 30.9129 35.3578 31.0035C36.8166 29.255 38.3087 27.2142 39.1363 26.0553C38.9487 25.4759 38.719 24.9067 38.4437 24.3495C38.3122 24.0829 38.1684 23.8282 38.0176 23.5787C37.3461 22.4677 36.4642 21.5396 35.2456 20.9619C33.4256 20.0987 31.5478 19.3552 29.6857 18.5792C29.5647 18.5279 29.3 18.5997 29.2158 18.704C28.9633 19.0151 28.7196 19.3484 28.5583 19.7107C27.9218 21.1311 27.3204 22.5668 26.698 23.994C26.6437 24.1171 26.5279 24.2145 26.4403 24.3222C26.3281 24.2333 26.1966 24.1615 26.1089 24.0538C25.5408 23.3479 24.985 22.6335 24.4187 21.9259C24.2714 21.7413 24.1837 21.6473 24.1013 21.6353C24.0189 21.6473 23.933 21.7413 23.7839 21.9259C23.2176 22.6335 22.6636 23.3479 22.0937 24.0538C22.0078 24.1615 21.8746 24.2333 21.7623 24.3222C21.6747 24.2128 21.5589 24.1171 21.5046 23.994C20.8822 22.5668 20.2808 21.1311 19.6443 19.7107C19.483 19.3501 19.2393 19.0151 18.9868 18.704C18.9026 18.6014 18.6396 18.5296 18.5169 18.5792C16.6548 19.3552 14.777 20.0987 12.957 20.9619C11.7384 21.5396 10.8565 22.4677 10.185 23.5787C10.0342 23.8282 9.89042 24.0846 9.75892 24.3495C9.4854 24.9085 9.25395 25.4759 9.06635 26.0553C9.89393 27.2142 11.3878 29.255 12.8448 31.0035C12.3451 30.9112 11.8489 30.8104 11.3597 30.689C10.6321 30.0891 9.82555 29.3473 8.99621 28.4431L8.0459 29.2037C10.9442 35.4031 15.8413 41.5887 24.0995 45.4892V43.9526C31.0989 40.623 35.5191 35.5278 38.3087 30.2566C38.6278 29.6532 38.9259 29.0482 39.2029 28.4431C38.3736 29.3473 37.567 30.0908 36.8394 30.689H36.8429ZM19.0271 27.0911H14.1931V25.9237H19.0271V27.0911ZM31.6389 28.9866L29.3 30.1848L29.7471 27.6466L27.8552 25.8485L30.4695 25.4776L31.6389 23.1685L32.8084 25.4776L35.4227 25.8485L33.5308 27.6466L33.9779 30.1848L31.6389 28.9866Z" fill="#DDB3FF"/>
<path d="M40.155 29.9686L39.2047 29.208C38.3754 30.1122 37.5688 30.8557 36.8412 31.4539C36.3503 31.5753 35.8541 31.6778 35.3561 31.7684C36.8149 30.0199 38.307 27.9791 39.1346 26.8202C38.947 26.2408 38.7173 25.6716 38.442 25.1144C38.3105 24.8478 38.1667 24.5931 38.0159 24.3436C37.3444 23.2326 36.4625 22.3045 35.2439 21.7268C33.4239 20.8636 31.5461 20.1201 29.684 19.3441C29.563 19.2928 29.2983 19.3646 29.2141 19.4689C28.9616 19.78 28.7179 20.1133 28.5566 20.4756C27.9202 21.896 27.3188 23.3317 26.6963 24.7589C26.642 24.882 26.5262 24.9794 26.4386 25.0871C26.3264 24.9982 26.1931 24.9264 26.1072 24.8187C25.5391 24.1128 24.9833 23.3984 24.417 22.6908C24.2697 22.5062 24.182 22.4122 24.0996 22.4002V44.7158V48.7632C33.0575 44.5312 38.4087 37.8464 41.5963 31.1223L40.155 29.9669V29.9686ZM31.6355 29.7515L29.2965 30.9497L29.7436 28.4115L27.8518 26.6134L30.466 26.2425L31.6355 23.9334L32.805 26.2425L35.4192 26.6134L33.5274 28.4115L33.9745 30.9497L31.6355 29.7515Z" fill="#8A21CF"/>
<path d="M24.0996 6.56769V9.43234C26.5052 9.43234 28.6951 8.88881 30.3345 8.00001C28.6951 7.11122 26.5052 6.56769 24.0996 6.56769Z" fill="#8A21CF"/>
<path d="M29.3053 17.2862C29.4105 17.0093 29.4789 16.7153 29.6227 16.4555C29.7612 16.2043 29.9663 15.994 30.1539 15.7736C30.7132 15.1104 31.1148 14.3258 31.3304 13.4935C31.4987 12.844 31.7249 11.7261 31.3725 11.0988C31.3024 10.9741 31.1901 10.8783 31.0937 10.7724C31.0253 10.6989 30.9657 10.6185 30.9096 10.5348V9.15033C29.2562 10.0237 26.8226 10.5827 24.0996 10.6066V21.1969C24.5642 21.202 25.0341 21.1217 25.4742 20.9764C27.2521 20.3936 28.6548 18.9886 29.3035 17.2879L29.3053 17.2862Z" fill="#8A21CF"/>
<path d="M31.9529 5.06187C31.8073 4.77472 31.639 4.49954 31.4532 4.23632C30.6834 3.15267 29.5999 2.30319 28.3918 1.72206C27.0628 1.08281 25.5794 0.768311 24.0996 0.764893V1.47935H25.7267V1.95451H25.3708C25.3708 1.95451 25.1411 2.19893 25.3182 2.66384C25.4953 3.12874 25.6741 3.54579 25.4286 3.86371C25.2428 4.103 24.4661 4.39186 24.0996 4.51834V5.28749C27.1347 5.29261 29.8909 6.02416 31.9248 7.21549C32.2597 7.31633 32.2913 6.64119 32.3053 6.46172C32.3421 5.9387 32.1913 5.5302 31.9546 5.06358L31.9529 5.06187Z" fill="#8A21CF"/>
</g>
<defs>
<clipPath id="clip0_186_2081">
<rect width="48" height="48" fill="white" transform="translate(0.102539)"/>
</clipPath>
</defs>
</svg>
