<svg width="300" height="48" viewBox="0 0 300 48" fill="none" xmlns="http://www.w3.org/2000/svg">
<g clip-path="url(#clip0_186_2168)">
<path d="M46.1033 7.606C46.1033 7.606 37.6065 2.38262 25.156 1.52631C25.1508 1.62886 25.163 1.75021 25.2209 1.89892C25.398 2.36382 25.5768 2.78087 25.3313 3.09879C25.1455 3.33808 24.3688 3.62694 24.0023 3.75342C23.6359 3.62694 22.8591 3.33808 22.6733 3.09879C22.4278 2.78258 22.6049 2.36382 22.7837 1.89892C22.8398 1.75192 22.8539 1.62886 22.8486 1.52631C10.3946 2.38433 1.89786 7.606 1.89786 7.606C1.89786 7.606 -0.0430992 36.6422 24.0006 48C48.0442 36.6422 46.1033 7.606 46.1033 7.606ZM24.0006 43.9525C3.45308 34.1775 5.11174 9.18703 5.11174 9.18703C5.11174 9.18703 12.8247 4.41147 24.0006 3.89699C35.1764 4.41147 42.8894 9.18703 42.8894 9.18703C42.8894 9.18703 44.548 34.1792 24.0006 43.9525Z" fill="#DDB3FF"/>
<path d="M44.1698 8.63156C44.1698 8.63156 36.5392 3.94146 25.3248 3.10394C25.1302 3.34152 24.364 3.62696 24.001 3.75174C23.6381 3.62696 22.8736 3.34152 22.6772 3.10394C11.4646 3.94146 3.83402 8.63156 3.83402 8.63156C3.83402 8.63156 2.06314 35.1262 24.001 45.4892C45.9407 35.1262 44.168 8.63156 44.168 8.63156H44.1698ZM24.001 43.9526C3.45354 34.1775 5.11221 9.18705 5.11221 9.18705C5.11221 9.18705 12.8252 4.4115 24.001 3.89702C35.1769 4.4115 42.8898 9.18705 42.8898 9.18705C42.8898 9.18705 44.5485 34.1793 24.001 43.9526Z" fill="#8A21CF"/>
<path d="M46.1029 7.606C46.1029 7.606 37.6062 2.38262 25.1557 1.52631C25.1504 1.62886 25.1627 1.75021 25.2205 1.89892C25.3976 2.36382 25.5765 2.78087 25.331 3.09879C25.331 3.1005 25.3275 3.10392 25.324 3.10562C36.5366 3.94314 44.169 8.63324 44.169 8.63324C44.169 8.63324 45.9398 35.1278 24.002 45.4908V48.0017C48.0456 36.6439 46.1047 7.60771 46.1047 7.60771L46.1029 7.606Z" fill="#DDB3FF"/>
<path d="M30.2354 7.23512C28.5961 6.34633 26.4061 5.8028 24.0005 5.8028C21.5949 5.8028 19.405 6.34633 17.7656 7.23512C19.405 8.12391 21.5949 8.66745 24.0005 8.66745C26.4061 8.66745 28.5961 8.12391 30.2354 7.23512Z" fill="#DDB3FF"/>
<path d="M31.2729 10.3339C31.2027 10.2092 31.0905 10.1135 30.9941 10.0075C30.9257 9.93399 30.8661 9.85366 30.81 9.7699V8.38544C29.1566 9.25885 26.7229 9.81776 24 9.84169C21.2788 9.81947 18.8451 9.26056 17.19 8.38544V9.7699C17.1356 9.85366 17.0743 9.93399 17.0059 10.0075C16.9077 10.1135 16.7972 10.2092 16.7271 10.3339C16.3747 10.9612 16.6009 12.0791 16.7692 12.7286C16.9848 13.561 17.3864 14.3455 17.9457 15.0087C18.1315 15.2291 18.3367 15.4394 18.4752 15.6906C18.619 15.9504 18.6873 16.2444 18.7925 16.5213C19.4413 18.222 20.844 19.627 22.6219 20.2098C23.0637 20.3551 23.5318 20.4337 23.9965 20.4303C24.4611 20.4354 24.931 20.3551 25.3711 20.2098C27.149 19.627 28.5517 18.222 29.2004 16.5213C29.3056 16.2444 29.374 15.9504 29.5178 15.6906C29.6563 15.4394 29.8614 15.2291 30.0473 15.0087C30.6066 14.3455 31.0081 13.561 31.2238 12.7286C31.3921 12.0791 31.6183 10.9612 31.2659 10.3339H31.2729Z" fill="#DDB3FF"/>
<path d="M31.8537 4.29698C31.7082 4.00983 31.5398 3.73464 31.354 3.47142C30.5843 2.38778 29.5007 1.5383 28.2926 0.957163C26.9636 0.317915 25.4803 0.00341844 24.0004 0C22.5206 0.00341844 21.0373 0.317915 19.7083 0.957163C18.5002 1.53659 17.4166 2.38778 16.6469 3.47142C16.4593 3.73464 16.2927 4.00983 16.1472 4.29698C15.9105 4.7653 15.7597 5.1721 15.7965 5.69512C15.8088 5.8763 15.8421 6.54973 16.177 6.44888C18.2109 5.25756 20.9672 4.5243 24.0022 4.52088C27.0372 4.5243 29.7935 5.25756 31.8274 6.44888C32.1623 6.54802 32.1938 5.87459 32.2079 5.69512C32.2447 5.1721 32.0939 4.76359 31.8572 4.29698H31.8537ZM25.6293 1.18791H25.2734C25.2734 1.18791 25.0437 1.43233 25.2208 1.89723C25.3979 2.36214 25.5767 2.77919 25.3312 3.09711C25.1454 3.3364 24.3687 3.62525 24.0022 3.75174C23.6358 3.62525 22.859 3.3364 22.6732 3.09711C22.4277 2.7809 22.6048 2.36214 22.7836 1.89723C22.9625 1.43233 22.731 1.18791 22.731 1.18791H22.3751V0.712744H25.6311V1.18791H25.6293Z" fill="#DDB3FF"/>
<path d="M36.7403 30.689C36.2494 30.8104 35.7532 30.9129 35.2553 31.0035C36.714 29.255 38.2061 27.2142 39.0337 26.0553C38.8461 25.4759 38.6164 24.9067 38.3411 24.3495C38.2096 24.0829 38.0659 23.8282 37.9151 23.5787C37.2436 22.4677 36.3616 21.5396 35.143 20.9619C33.3231 20.0987 31.4452 19.3552 29.5832 18.5792C29.4622 18.5279 29.1974 18.5997 29.1133 18.704C28.8608 19.0151 28.6171 19.3484 28.4558 19.7107C27.8193 21.1311 27.2179 22.5668 26.5955 23.994C26.5411 24.1171 26.4254 24.2145 26.3377 24.3222C26.2255 24.2333 26.094 24.1615 26.0063 24.0538C25.4383 23.3479 24.8825 22.6335 24.3161 21.9259C24.1688 21.7413 24.0812 21.6473 23.9988 21.6353C23.9164 21.6473 23.8304 21.7413 23.6814 21.9259C23.1151 22.6335 22.561 23.3479 21.9912 24.0538C21.9053 24.1615 21.772 24.2333 21.6598 24.3222C21.5721 24.2128 21.4564 24.1171 21.4021 23.994C20.7796 22.5668 20.1782 21.1311 19.5418 19.7107C19.3804 19.3501 19.1367 19.0151 18.8842 18.704C18.8001 18.6014 18.5371 18.5296 18.4144 18.5792C16.5523 19.3552 14.6745 20.0987 12.8545 20.9619C11.6359 21.5396 10.754 22.4677 10.0824 23.5787C9.93166 23.8282 9.78788 24.0846 9.65638 24.3495C9.38286 24.9085 9.15142 25.4759 8.96381 26.0553C9.79139 27.2142 11.2852 29.255 12.7423 31.0035C12.2426 30.9112 11.7464 30.8104 11.2572 30.689C10.5295 30.0891 9.72301 29.3473 8.89367 28.4431L7.94336 29.2037C10.8416 35.4031 15.7387 41.5887 23.997 45.4892V43.9526C30.9964 40.623 35.4166 35.5278 38.2061 30.2566C38.5252 29.6532 38.8233 29.0482 39.1003 28.4431C38.271 29.3473 37.4645 30.0908 36.7368 30.689H36.7403ZM18.9246 27.0911H14.0906V25.9237H18.9246V27.0911ZM31.5364 28.9866L29.1974 30.1848L29.6445 27.6466L27.7527 25.8485L30.3669 25.4776L31.5364 23.1685L32.7059 25.4776L35.3201 25.8485L33.4283 27.6466L33.8754 30.1848L31.5364 28.9866Z" fill="#DDB3FF"/>
<path d="M40.0525 29.9686L39.1022 29.208C38.2728 30.1122 37.4663 30.8557 36.7386 31.4539C36.2477 31.5753 35.7515 31.6778 35.2536 31.7684C36.7123 30.0199 38.2044 27.9791 39.032 26.8202C38.8444 26.2408 38.6147 25.6716 38.3395 25.1144C38.208 24.8478 38.0642 24.5931 37.9134 24.3436C37.2419 23.2326 36.3599 22.3045 35.1413 21.7268C33.3214 20.8636 31.4435 20.1201 29.5815 19.3441C29.4605 19.2928 29.1957 19.3646 29.1116 19.4689C28.8591 19.78 28.6154 20.1133 28.4541 20.4756C27.8176 21.896 27.2162 23.3317 26.5938 24.7589C26.5394 24.882 26.4237 24.9794 26.336 25.0871C26.2238 24.9982 26.0906 24.9264 26.0047 24.8187C25.4366 24.1128 24.8808 23.3984 24.3144 22.6908C24.1671 22.5062 24.0795 22.4122 23.9971 22.4002V44.7158V48.7632C32.9549 44.5312 38.3061 37.8464 41.4937 31.1223L40.0525 29.9669V29.9686ZM31.533 29.7515L29.194 30.9497L29.6411 28.4115L27.7492 26.6134L30.3635 26.2425L31.533 23.9334L32.7024 26.2425L35.3167 26.6134L33.4248 28.4115L33.8719 30.9497L31.533 29.7515Z" fill="#8A21CF"/>
<path d="M23.9971 6.56769V9.43234C26.4027 9.43234 28.5926 8.88881 30.232 8.00001C28.5926 7.11122 26.4027 6.56769 23.9971 6.56769Z" fill="#8A21CF"/>
<path d="M29.2028 17.2862C29.308 17.0093 29.3763 16.7153 29.5201 16.4555C29.6586 16.2043 29.8638 15.994 30.0514 15.7736C30.6107 15.1104 31.0122 14.3258 31.2279 13.4935C31.3962 12.844 31.6224 11.7261 31.27 11.0988C31.1998 10.9741 31.0876 10.8783 30.9912 10.7724C30.9228 10.6989 30.8632 10.6185 30.8071 10.5348V9.15033C29.1537 10.0237 26.72 10.5827 23.9971 10.6066V21.1969C24.4617 21.202 24.9316 21.1217 25.3717 20.9764C27.1496 20.3936 28.5523 18.9886 29.201 17.2879L29.2028 17.2862Z" fill="#8A21CF"/>
<path d="M31.8503 5.06187C31.7048 4.77472 31.5365 4.49954 31.3506 4.23632C30.5809 3.15267 29.4973 2.30319 28.2893 1.72206C26.9602 1.08281 25.4769 0.768311 23.9971 0.764893V1.47935H25.6242V1.95451H25.2682C25.2682 1.95451 25.0386 2.19893 25.2156 2.66384C25.3927 3.12874 25.5716 3.54579 25.3261 3.86371C25.1403 4.103 24.3635 4.39186 23.9971 4.51834V5.28749C27.0321 5.29261 29.7884 6.02416 31.8223 7.21549C32.1572 7.31633 32.1887 6.64119 32.2027 6.46172C32.2396 5.9387 32.0888 5.5302 31.8521 5.06358L31.8503 5.06187Z" fill="#8A21CF"/>
</g>
<path d="M68.288 35.416C66.7733 35.416 65.3493 35.1173 64.016 34.52C62.6827 33.912 61.5093 33.0747 60.496 32.008C59.4933 30.9413 58.704 29.7093 58.128 28.312C57.5627 26.904 57.28 25.4 57.28 23.8C57.28 22.1893 57.5627 20.6853 58.128 19.288C58.704 17.88 59.4933 16.648 60.496 15.592C61.5093 14.5253 62.6827 13.6933 64.016 13.096C65.3493 12.488 66.7733 12.184 68.288 12.184C70.1013 12.184 71.7707 12.6053 73.296 13.448C74.8213 14.28 76.0853 15.3947 77.088 16.792L73.6 18.664C72.9707 17.8853 72.1867 17.2613 71.248 16.792C70.32 16.3227 69.3333 16.088 68.288 16.088C67.3067 16.088 66.384 16.2907 65.52 16.696C64.656 17.0907 63.8987 17.6453 63.248 18.36C62.5973 19.064 62.0907 19.8853 61.728 20.824C61.3653 21.752 61.184 22.744 61.184 23.8C61.184 24.8667 61.3653 25.864 61.728 26.792C62.1013 27.72 62.6133 28.5413 63.264 29.256C63.9147 29.96 64.6667 30.5147 65.52 30.92C66.384 31.3147 67.3067 31.512 68.288 31.512C69.3547 31.512 70.3467 31.2773 71.264 30.808C72.192 30.328 72.9707 29.6987 73.6 28.92L77.088 30.808C76.0853 32.1947 74.8213 33.3093 73.296 34.152C71.7707 34.9947 70.1013 35.416 68.288 35.416ZM79.3898 35L79.3738 19H83.2778L83.2938 20.424C83.8378 19.848 84.4884 19.3947 85.2458 19.064C86.0031 18.7227 86.8191 18.552 87.6938 18.552C88.2804 18.552 88.8671 18.6373 89.4538 18.808L87.9178 22.744C87.5124 22.584 87.1071 22.504 86.7018 22.504C86.0724 22.504 85.4964 22.6587 84.9738 22.968C84.4618 23.2667 84.0511 23.6773 83.7418 24.2C83.4431 24.712 83.2938 25.2827 83.2938 25.912V35H79.3898ZM96.8987 35.416C95.4267 35.416 94.0827 35.0373 92.8667 34.28C91.6614 33.5227 90.6961 32.504 89.9707 31.224C89.2561 29.944 88.8987 28.5307 88.8987 26.984C88.8987 25.8213 89.1067 24.7333 89.5227 23.72C89.9387 22.696 90.5094 21.8 91.2347 21.032C91.9707 20.2533 92.8241 19.6453 93.7947 19.208C94.7654 18.7707 95.8001 18.552 96.8987 18.552C98.1467 18.552 99.2881 18.8187 100.323 19.352C101.368 19.8747 102.253 20.5947 102.979 21.512C103.704 22.4293 104.232 23.4747 104.563 24.648C104.893 25.8213 104.968 27.048 104.787 28.328H93.0907C93.2401 28.9253 93.4854 29.464 93.8267 29.944C94.1681 30.4133 94.6001 30.792 95.1227 31.08C95.6454 31.3573 96.2374 31.5013 96.8987 31.512C97.5814 31.5227 98.2001 31.3627 98.7548 31.032C99.3201 30.6907 99.7894 30.232 100.163 29.656L104.147 30.584C103.496 32.0027 102.525 33.1653 101.235 34.072C99.9441 34.968 98.4987 35.416 96.8987 35.416ZM92.9627 25.4H100.835C100.717 24.76 100.467 24.184 100.083 23.672C99.7094 23.1493 99.2454 22.7333 98.6908 22.424C98.1361 22.1147 97.5387 21.96 96.8987 21.96C96.2587 21.96 95.6667 22.1147 95.1227 22.424C94.5787 22.7227 94.1147 23.1333 93.7307 23.656C93.3574 24.168 93.1014 24.7493 92.9627 25.4ZM118.909 11H122.813V35H118.909V33C118.397 33.7147 117.751 34.296 116.973 34.744C116.194 35.192 115.293 35.416 114.269 35.416C113.106 35.416 112.018 35.1973 111.005 34.76C109.991 34.3227 109.095 33.72 108.317 32.952C107.549 32.1733 106.946 31.2773 106.509 30.264C106.071 29.2507 105.853 28.1627 105.853 27C105.853 25.8373 106.071 24.7493 106.509 23.736C106.946 22.7227 107.549 21.832 108.317 21.064C109.095 20.2853 109.991 19.6773 111.005 19.24C112.018 18.8027 113.106 18.584 114.269 18.584C115.293 18.584 116.194 18.808 116.973 19.256C117.751 19.6933 118.397 20.2747 118.909 21V11ZM114.317 31.656C115.149 31.656 115.885 31.448 116.525 31.032C117.165 30.616 117.666 30.056 118.029 29.352C118.391 28.6373 118.573 27.8533 118.573 27C118.573 26.136 118.391 25.352 118.029 24.648C117.666 23.9333 117.159 23.368 116.509 22.952C115.869 22.536 115.138 22.328 114.317 22.328C113.495 22.328 112.743 22.5413 112.061 22.968C111.389 23.384 110.85 23.944 110.445 24.648C110.05 25.352 109.853 26.136 109.853 27C109.853 27.864 110.055 28.648 110.461 29.352C110.866 30.056 111.405 30.616 112.077 31.032C112.759 31.448 113.506 31.656 114.317 31.656ZM126.016 35V12.6H130.24L139.696 27.944V12.6H143.6V35H139.392L129.92 19.656V35H126.016ZM158.628 19H162.532V35H158.628L158.452 33.016C158.014 33.7307 157.433 34.312 156.708 34.76C155.993 35.1973 155.145 35.416 154.164 35.416C152.98 35.416 151.87 35.192 150.836 34.744C149.801 34.296 148.889 33.6773 148.1 32.888C147.321 32.0987 146.708 31.1867 146.26 30.152C145.822 29.1173 145.604 28.008 145.604 26.824C145.604 25.6827 145.812 24.6107 146.228 23.608C146.654 22.6053 147.246 21.7253 148.004 20.968C148.761 20.2107 149.636 19.6187 150.628 19.192C151.62 18.7653 152.686 18.552 153.828 18.552C154.884 18.552 155.828 18.7867 156.66 19.256C157.502 19.7253 158.217 20.3227 158.804 21.048L158.628 19ZM154.068 31.656C154.9 31.656 155.636 31.448 156.276 31.032C156.916 30.616 157.417 30.056 157.78 29.352C158.142 28.6373 158.324 27.8533 158.324 27C158.324 26.136 158.142 25.352 157.78 24.648C157.417 23.9333 156.91 23.368 156.26 22.952C155.62 22.536 154.889 22.328 154.068 22.328C153.246 22.328 152.494 22.5413 151.812 22.968C151.14 23.384 150.601 23.944 150.196 24.648C149.801 25.352 149.604 26.136 149.604 27C149.604 27.864 149.806 28.648 150.212 29.352C150.617 30.056 151.156 30.616 151.828 31.032C152.51 31.448 153.257 31.656 154.068 31.656ZM173.656 22.904H170.552V35H166.648V22.904H164.28V19H166.648V13.976H170.552V19H173.656V22.904ZM175.659 19H179.563V35H175.659V19ZM177.643 16.936C177.067 16.936 176.581 16.7493 176.187 16.376C175.792 15.992 175.595 15.512 175.595 14.936C175.595 14.3707 175.792 13.896 176.187 13.512C176.581 13.128 177.061 12.936 177.627 12.936C178.192 12.936 178.667 13.128 179.051 13.512C179.445 13.896 179.643 14.3707 179.643 14.936C179.643 15.512 179.451 15.992 179.067 16.376C178.683 16.7493 178.208 16.936 177.643 16.936ZM189.434 35.416C187.962 35.416 186.618 35.0373 185.402 34.28C184.196 33.5227 183.231 32.5093 182.506 31.24C181.791 29.96 181.434 28.5467 181.434 27C181.434 25.8267 181.642 24.7333 182.058 23.72C182.474 22.696 183.044 21.8 183.77 21.032C184.506 20.2533 185.359 19.6453 186.33 19.208C187.3 18.7707 188.335 18.552 189.434 18.552C190.906 18.552 192.244 18.9307 193.45 19.688C194.666 20.4453 195.631 21.464 196.346 22.744C197.071 24.024 197.434 25.4427 197.434 27C197.434 28.1627 197.226 29.2507 196.81 30.264C196.394 31.2773 195.818 32.1733 195.082 32.952C194.356 33.72 193.508 34.3227 192.538 34.76C191.578 35.1973 190.543 35.416 189.434 35.416ZM189.434 31.512C190.212 31.512 190.911 31.304 191.53 30.888C192.148 30.472 192.634 29.9227 192.986 29.24C193.348 28.5573 193.53 27.8107 193.53 27C193.53 26.168 193.343 25.4107 192.97 24.728C192.607 24.0347 192.111 23.4853 191.482 23.08C190.863 22.664 190.18 22.456 189.434 22.456C188.666 22.456 187.972 22.664 187.354 23.08C186.735 23.496 186.244 24.0507 185.882 24.744C185.519 25.4373 185.338 26.1893 185.338 27C185.338 27.8427 185.524 28.6053 185.898 29.288C186.271 29.9707 186.767 30.5147 187.386 30.92C188.015 31.3147 188.698 31.512 189.434 31.512ZM213.941 24.888V35H210.037V25.912C210.037 25.2827 209.882 24.712 209.573 24.2C209.264 23.6773 208.848 23.2667 208.325 22.968C207.813 22.6587 207.242 22.504 206.613 22.504C205.984 22.504 205.408 22.6587 204.885 22.968C204.373 23.2667 203.962 23.6773 203.653 24.2C203.354 24.712 203.205 25.2827 203.205 25.912V35H199.301L199.285 19H203.189L203.205 20.424C203.749 19.848 204.4 19.3947 205.157 19.064C205.914 18.7227 206.73 18.552 207.605 18.552C208.768 18.552 209.829 18.84 210.789 19.416C211.749 19.9813 212.512 20.744 213.077 21.704C213.653 22.6533 213.941 23.7147 213.941 24.888Z" fill="white"/>
<defs>
<clipPath id="clip0_186_2168">
<rect width="48" height="48" fill="white"/>
</clipPath>
</defs>
</svg>
