<svg width="16" height="16" viewBox="0 0 16 16" fill="none" xmlns="http://www.w3.org/2000/svg">
<mask id="mask0_171_4070" style="mask-type:alpha" maskUnits="userSpaceOnUse" x="0" y="0" width="16" height="16">
<rect width="16" height="16" fill="#D9D9D9"/>
</mask>
<g mask="url(#mask0_171_4070)">
<path d="M1.33366 12.6666V11.3333H14.667V12.6666H1.33366ZM2.10033 8.63329L1.23366 8.13329L1.80033 7.13329H0.666992V6.13329H1.80033L1.23366 5.16663L2.10033 4.66663L2.66699 5.63329L3.23366 4.66663L4.10033 5.16663L3.53366 6.13329H4.66699V7.13329H3.53366L4.10033 8.13329L3.23366 8.63329L2.66699 7.63329L2.10033 8.63329ZM7.43366 8.63329L6.56699 8.13329L7.13366 7.13329H6.00033V6.13329H7.13366L6.56699 5.16663L7.43366 4.66663L8.00033 5.63329L8.56699 4.66663L9.43366 5.16663L8.86699 6.13329H10.0003V7.13329H8.86699L9.43366 8.13329L8.56699 8.63329L8.00033 7.63329L7.43366 8.63329ZM12.767 8.63329L11.9003 8.13329L12.467 7.13329H11.3337V6.13329H12.467L11.9003 5.16663L12.767 4.66663L13.3337 5.63329L13.9003 4.66663L14.767 5.16663L14.2003 6.13329H15.3337V7.13329H14.2003L14.767 8.13329L13.9003 8.63329L13.3337 7.63329L12.767 8.63329Z" fill="#7C7C88"/>
</g>
</svg>
