<svg width="48" height="48" viewBox="0 0 48 48" fill="none" xmlns="http://www.w3.org/2000/svg">
<rect width="48" height="48" rx="24" fill="#FBF5FF"/>
<mask id="mask0_171_4085" style="mask-type:luminance" maskUnits="userSpaceOnUse" x="12" y="12" width="24" height="24">
<path d="M12 12H36V36H12V12Z" fill="white"/>
</mask>
<g mask="url(#mask0_171_4085)">
<path d="M35.3375 20.145L24.8773 16.9313C24.3073 16.7561 23.6923 16.7561 23.1227 16.9313L12.6621 20.145C11.7793 20.4162 11.7793 21.5835 12.6621 21.8546L14.4857 22.4149C14.0856 22.9095 13.8396 23.5129 13.8152 24.1736C13.4541 24.3806 13.1998 24.7541 13.1998 25.2C13.1998 25.6042 13.4128 25.9444 13.7196 26.1619L12.7622 30.4699C12.6789 30.8445 12.9639 31.2 13.3476 31.2H15.4517C15.8357 31.2 16.1207 30.8445 16.0374 30.4699L15.0801 26.1619C15.3868 25.9444 15.5998 25.6042 15.5998 25.2C15.5998 24.7661 15.3572 24.4031 15.0126 24.1924C15.0411 23.6291 15.3291 23.1311 15.7884 22.8154L23.1223 25.0688C23.4621 25.173 24.1138 25.3031 24.8769 25.0688L35.3375 21.855C36.2207 21.5835 36.2207 20.4165 35.3375 20.145ZM25.2294 26.2159C24.1595 26.5444 23.2479 26.3629 22.7698 26.2159L17.3316 24.5452L16.7998 28.8C16.7998 30.1256 20.0233 31.2 23.9998 31.2C27.9763 31.2 31.1998 30.1256 31.1998 28.8L30.668 24.5449L25.2294 26.2159Z" fill="#3E065F"/>
</g>
</svg>
