<svg width="17" height="16" viewBox="0 0 17 16" fill="none" xmlns="http://www.w3.org/2000/svg">
<g clip-path="url(#clip0_62_10167)">
<path d="M2.51853 10C3.44169 10.9245 4.67104 11.4794 5.97499 11.5603C7.27895 11.6413 8.56749 11.2426 9.59786 10.4393L13.1432 13.9847C13.2689 14.1061 13.4373 14.1733 13.6121 14.1718C13.7869 14.1703 13.9541 14.1001 14.0777 13.9765C14.2013 13.8529 14.2715 13.6857 14.273 13.5109C14.2745 13.3361 14.2073 13.1677 14.0859 13.042L10.5405 9.49666C11.3794 8.42011 11.776 7.06409 11.6494 5.70518C11.5229 4.34626 10.8827 3.08679 9.85952 2.18364C8.83629 1.28048 7.50708 0.801672 6.14297 0.844849C4.77886 0.888026 3.48259 1.44994 2.51853 2.416C2.02039 2.91388 1.62524 3.50503 1.35563 4.15567C1.08603 4.80632 0.947266 5.50371 0.947266 6.208C0.947266 6.91229 1.08603 7.60968 1.35563 8.26032C1.62524 8.91096 2.02039 9.50212 2.51853 10ZM3.4612 3.36C4.12024 2.70096 4.98741 2.29082 5.91495 2.19946C6.84248 2.1081 7.773 2.34116 8.54797 2.85895C9.32294 3.37673 9.8944 4.14719 10.165 5.03907C10.4356 5.93095 10.3886 6.88907 10.032 7.75017C9.67536 8.61127 9.03121 9.32209 8.20928 9.76152C7.38735 10.2009 6.43848 10.3418 5.52434 10.1601C4.61021 9.97834 3.78736 9.48528 3.19599 8.76489C2.60463 8.0445 2.28134 7.14136 2.2812 6.20933C2.27937 5.67971 2.38273 5.155 2.58529 4.66565C2.78786 4.1763 3.08558 3.73204 3.4612 3.35866V3.36Z" fill="#A3A3A3"/>
</g>
<defs>
<clipPath id="clip0_62_10167">
<rect width="16" height="16" fill="white" transform="translate(0.102539)"/>
</clipPath>
</defs>
</svg>
