<svg width="21" height="20" viewBox="0 0 21 20" fill="none" xmlns="http://www.w3.org/2000/svg">
<path d="M18.4362 8.41666C18.5195 7.99999 18.1862 7.49999 17.7695 7.49999L13.0195 6.83332L10.8529 2.49999C10.7695 2.33332 10.6862 2.24999 10.5195 2.16666C10.1029 1.91666 9.60287 2.08332 9.35287 2.49999L7.26953 6.83332L2.51953 7.49999C2.26953 7.49999 2.10286 7.58332 2.01953 7.74999C1.6862 8.08332 1.6862 8.58332 2.01953 8.91666L5.4362 12.25L4.60286 17C4.60286 17.1667 4.60286 17.3333 4.6862 17.5C4.9362 17.9167 5.4362 18.0833 5.85286 17.8333L10.1029 15.5833L14.3529 17.8333C14.4362 17.9167 14.6029 17.9167 14.7695 17.9167C14.8529 17.9167 14.8529 17.9167 14.9362 17.9167C15.3529 17.8333 15.6862 17.4167 15.6029 16.9167L14.7695 12.1667L18.1862 8.83332C18.3529 8.74999 18.4362 8.58332 18.4362 8.41666Z" fill="#8A21CF"/>
</svg>
