<svg width="11" height="14" viewBox="0 0 11 14" fill="none" xmlns="http://www.w3.org/2000/svg">
<path d="M4.58917 13.7176C0.805785 7.95788 0.103516 7.36673 0.103516 5.25C0.103516 2.3505 2.34184 0 5.10297 0C7.86406 0 10.1024 2.3505 10.1024 5.25C10.1024 7.36673 9.40016 7.95788 5.61678 13.7176C5.36847 14.0941 4.83742 14.0941 4.58917 13.7176ZM5.10297 7.4375C6.25344 7.4375 7.18607 6.45813 7.18607 5.25C7.18607 4.04187 6.25344 3.0625 5.10297 3.0625C3.95249 3.0625 3.01986 4.04187 3.01986 5.25C3.01986 6.45813 3.95249 7.4375 5.10297 7.4375Z" fill="#8A21CF"/>
</svg>
