<svg width="80" height="80" viewBox="0 0 80 80" fill="none" xmlns="http://www.w3.org/2000/svg">
<path d="M16 0C7.16345 0 0 7.16345 0 16V64C0 72.8366 7.16344 80 16 80H64C72.8366 80 80 72.8366 80 64V16C80 7.16345 72.8366 0 64 0H16Z" fill="white" fill-opacity="0.1"/>
<g clip-path="url(#clip0_170_1215)">
<path d="M62.1033 23.6061C62.1033 23.6061 53.6065 18.3827 41.156 17.5264C41.1508 17.6289 41.163 17.7503 41.2209 17.899C41.398 18.3639 41.5768 18.7809 41.3313 19.0988C41.1455 19.3381 40.3688 19.627 40.0023 19.7535C39.6359 19.627 38.8591 19.3381 38.6733 19.0988C38.4278 18.7826 38.6049 18.3639 38.7837 17.899C38.8398 17.752 38.8539 17.6289 38.8486 17.5264C26.3946 18.3844 17.8979 23.6061 17.8979 23.6061C17.8979 23.6061 15.9569 52.6423 40.0006 64C64.0442 52.6423 62.1033 23.6061 62.1033 23.6061ZM40.0006 59.9526C19.4531 50.1776 21.1117 25.1871 21.1117 25.1871C21.1117 25.1871 28.8247 20.4115 40.0006 19.8971C51.1764 20.4115 58.8894 25.1871 58.8894 25.1871C58.8894 25.1871 60.548 50.1793 40.0006 59.9526Z" fill="#DDB3FF"/>
<path d="M60.1698 24.6315C60.1698 24.6315 52.5392 19.9414 41.3248 19.1039C41.1302 19.3415 40.364 19.6269 40.001 19.7517C39.6381 19.6269 38.8736 19.3415 38.6772 19.1039C27.4646 19.9414 19.834 24.6315 19.834 24.6315C19.834 24.6315 18.0631 51.1261 40.001 61.4891C61.9407 51.1261 60.168 24.6315 60.168 24.6315H60.1698ZM40.001 59.9525C19.4535 50.1775 21.1122 25.187 21.1122 25.187C21.1122 25.187 28.8252 20.4114 40.001 19.897C51.1769 20.4114 58.8898 25.187 58.8898 25.187C58.8898 25.187 60.5485 50.1792 40.001 59.9525Z" fill="#8A21CF"/>
<path d="M62.1029 23.6061C62.1029 23.6061 53.6062 18.3827 41.1557 17.5264C41.1504 17.6289 41.1627 17.7503 41.2205 17.899C41.3976 18.3639 41.5765 18.7809 41.331 19.0988C41.331 19.1006 41.3275 19.104 41.324 19.1057C52.5366 19.9432 60.169 24.6333 60.169 24.6333C60.169 24.6333 61.9398 51.1279 40.002 61.4909V64.0017C64.0456 52.644 62.1047 23.6078 62.1047 23.6078L62.1029 23.6061Z" fill="#DDB3FF"/>
<path d="M46.2354 23.2352C44.5961 22.3464 42.4061 21.8029 40.0005 21.8029C37.5949 21.8029 35.405 22.3464 33.7656 23.2352C35.405 24.124 37.5949 24.6675 40.0005 24.6675C42.4061 24.6675 44.5961 24.124 46.2354 23.2352Z" fill="#DDB3FF"/>
<path d="M47.2729 26.3339C47.2027 26.2091 47.0905 26.1134 46.9941 26.0074C46.9257 25.9339 46.8661 25.8536 46.81 25.7698V24.3854C45.1566 25.2588 42.7229 25.8177 40 25.8416C37.2788 25.8194 34.8451 25.2605 33.19 24.3854V25.7698C33.1356 25.8536 33.0743 25.9339 33.0059 26.0074C32.9077 26.1134 32.7972 26.2091 32.7271 26.3339C32.3747 26.9612 32.6009 28.079 32.7692 28.7285C32.9848 29.5609 33.3864 30.3454 33.9457 31.0086C34.1315 31.2291 34.3367 31.4393 34.4752 31.6906C34.619 31.9504 34.6873 32.2444 34.7925 32.5213C35.4413 34.2219 36.844 35.6269 38.6219 36.2098C39.0637 36.355 39.5318 36.4337 39.9965 36.4302C40.4611 36.4354 40.931 36.355 41.3711 36.2098C43.149 35.6269 44.5517 34.2219 45.2004 32.5213C45.3056 32.2444 45.374 31.9504 45.5178 31.6906C45.6563 31.4393 45.8614 31.2291 46.0473 31.0086C46.6066 30.3454 47.0081 29.5609 47.2238 28.7285C47.3921 28.079 47.6183 26.9612 47.2659 26.3339H47.2729Z" fill="#DDB3FF"/>
<path d="M47.8537 20.297C47.7082 20.0098 47.5398 19.7346 47.354 19.4714C46.5843 18.3878 45.5007 17.5383 44.2926 16.9572C42.9636 16.3179 41.4803 16.0034 40.0004 16C38.5206 16.0034 37.0373 16.3179 35.7083 16.9572C34.5002 17.5366 33.4166 18.3878 32.6469 19.4714C32.4593 19.7346 32.2927 20.0098 32.1472 20.297C31.9105 20.7653 31.7597 21.1721 31.7965 21.6951C31.8088 21.8763 31.8421 22.5497 32.177 22.4489C34.2109 21.2576 36.9672 20.5243 40.0022 20.5209C43.0372 20.5243 45.7935 21.2576 47.8274 22.4489C48.1623 22.548 48.1938 21.8746 48.2079 21.6951C48.2447 21.1721 48.0939 20.7636 47.8572 20.297H47.8537ZM41.6293 17.1879H41.2734C41.2734 17.1879 41.0437 17.4323 41.2208 17.8972C41.3979 18.3621 41.5767 18.7792 41.3312 19.0971C41.1454 19.3364 40.3687 19.6253 40.0022 19.7517C39.6358 19.6253 38.859 19.3364 38.6732 19.0971C38.4277 18.7809 38.6048 18.3621 38.7836 17.8972C38.9625 17.4323 38.731 17.1879 38.731 17.1879H38.3751V16.7127H41.6311V17.1879H41.6293Z" fill="#DDB3FF"/>
<path d="M52.7403 46.689C52.2494 46.8104 51.7532 46.9129 51.2553 47.0035C52.714 45.255 54.2061 43.2142 55.0337 42.0553C54.8461 41.4759 54.6164 40.9067 54.3411 40.3495C54.2096 40.0829 54.0659 39.8282 53.9151 39.5787C53.2436 38.4677 52.3616 37.5396 51.143 36.9619C49.3231 36.0987 47.4452 35.3552 45.5832 34.5792C45.4622 34.5279 45.1974 34.5997 45.1133 34.704C44.8608 35.0151 44.6171 35.3484 44.4558 35.7107C43.8193 37.1311 43.2179 38.5668 42.5955 39.994C42.5411 40.1171 42.4254 40.2145 42.3377 40.3222C42.2255 40.2333 42.094 40.1615 42.0063 40.0538C41.4383 39.3479 40.8825 38.6335 40.3161 37.9259C40.1688 37.7413 40.0812 37.6473 39.9988 37.6353C39.9164 37.6473 39.8304 37.7413 39.6814 37.9259C39.1151 38.6335 38.561 39.3479 37.9912 40.0538C37.9053 40.1615 37.772 40.2333 37.6598 40.3222C37.5721 40.2128 37.4564 40.1171 37.4021 39.994C36.7796 38.5668 36.1782 37.1311 35.5418 35.7107C35.3804 35.3501 35.1367 35.0151 34.8842 34.704C34.8001 34.6014 34.5371 34.5296 34.4144 34.5792C32.5523 35.3552 30.6745 36.0987 28.8545 36.9619C27.6359 37.5396 26.754 38.4677 26.0824 39.5787C25.9317 39.8282 25.7879 40.0846 25.6564 40.3495C25.3829 40.9085 25.1514 41.4759 24.9638 42.0553C25.7914 43.2142 27.2852 45.255 28.7423 47.0035C28.2426 46.9112 27.7464 46.8104 27.2572 46.689C26.5295 46.0891 25.723 45.3473 24.8937 44.4431L23.9434 45.2037C26.8416 51.4031 31.7387 57.5887 39.997 61.4892V59.9526C46.9964 56.623 51.4166 51.5278 54.2061 46.2566C54.5252 45.6532 54.8233 45.0482 55.1003 44.4431C54.271 45.3473 53.4645 46.0908 52.7368 46.689H52.7403ZM34.9246 43.0911H30.0906V41.9237H34.9246V43.0911ZM47.5364 44.9866L45.1974 46.1848L45.6445 43.6466L43.7527 41.8485L46.3669 41.4776L47.5364 39.1685L48.7059 41.4776L51.3201 41.8485L49.4283 43.6466L49.8754 46.1848L47.5364 44.9866Z" fill="#DDB3FF"/>
<path d="M56.0525 45.9686L55.1022 45.208C54.2728 46.1122 53.4663 46.8557 52.7386 47.4539C52.2477 47.5753 51.7515 47.6778 51.2536 47.7684C52.7123 46.0199 54.2044 43.9791 55.032 42.8202C54.8444 42.2408 54.6147 41.6716 54.3395 41.1144C54.208 40.8478 54.0642 40.5931 53.9134 40.3436C53.2419 39.2326 52.3599 38.3045 51.1413 37.7268C49.3214 36.8636 47.4435 36.1201 45.5815 35.3441C45.4605 35.2928 45.1957 35.3646 45.1116 35.4689C44.8591 35.78 44.6154 36.1133 44.4541 36.4756C43.8176 37.896 43.2162 39.3317 42.5938 40.7589C42.5394 40.882 42.4237 40.9794 42.336 41.0871C42.2238 40.9982 42.0906 40.9264 42.0047 40.8187C41.4366 40.1128 40.8808 39.3984 40.3144 38.6908C40.1671 38.5062 40.0795 38.4122 39.9971 38.4002V60.7158V64.7632C48.9549 60.5312 54.3061 53.8464 57.4937 47.1223L56.0525 45.9669V45.9686ZM47.533 45.7515L45.194 46.9497L45.6411 44.4115L43.7492 42.6134L46.3635 42.2425L47.533 39.9334L48.7024 42.2425L51.3167 42.6134L49.4248 44.4115L49.8719 46.9497L47.533 45.7515Z" fill="#8A21CF"/>
<path d="M39.9971 22.5677V25.4324C42.4027 25.4324 44.5926 24.8889 46.232 24.0001C44.5926 23.1113 42.4027 22.5677 39.9971 22.5677Z" fill="#8A21CF"/>
<path d="M45.2028 33.2862C45.308 33.0093 45.3763 32.7153 45.5201 32.4555C45.6586 32.2042 45.8638 31.994 46.0514 31.7735C46.6107 31.1103 47.0122 30.3258 47.2279 29.4934C47.3962 28.8439 47.6224 27.7261 47.27 27.0988C47.1998 26.974 47.0876 26.8783 46.9912 26.7723C46.9228 26.6988 46.8632 26.6185 46.8071 26.5347V25.1503C45.1537 26.0237 42.72 26.5826 39.9971 26.6065V37.1968C40.4617 37.202 40.9316 37.1216 41.3717 36.9764C43.1496 36.3935 44.5523 34.9885 45.201 33.2879L45.2028 33.2862Z" fill="#8A21CF"/>
<path d="M47.8503 21.0619C47.7048 20.7747 47.5365 20.4995 47.3506 20.2363C46.5809 19.1527 45.4973 18.3032 44.2893 17.7221C42.9602 17.0828 41.4769 16.7683 39.9971 16.7649V17.4793H41.6242V17.9545H41.2682C41.2682 17.9545 41.0386 18.1989 41.2156 18.6638C41.3927 19.1287 41.5716 19.5458 41.3261 19.8637C41.1403 20.103 40.3635 20.3919 39.9971 20.5183V21.2875C43.0321 21.2926 45.7884 22.0242 47.8223 23.2155C48.1571 23.3163 48.1887 22.6412 48.2027 22.4617C48.2396 21.9387 48.0888 21.5302 47.8521 21.0636L47.8503 21.0619Z" fill="#8A21CF"/>
</g>
<defs>
<clipPath id="clip0_170_1215">
<rect width="48" height="48" fill="white" transform="translate(16 16)"/>
</clipPath>
</defs>
</svg>
