<svg width="16" height="16" viewBox="0 0 16 16" fill="none" xmlns="http://www.w3.org/2000/svg">
<path d="M8.10254 0.25C3.82129 0.25 0.352539 3.71875 0.352539 8C0.352539 12.2812 3.82129 15.75 8.10254 15.75C12.3837 15.75 15.8525 12.2812 15.8525 8C15.8525 3.71875 12.3837 0.25 8.10254 0.25ZM8.10254 14.25C4.64942 14.25 1.85254 11.4531 1.85254 8C1.85254 4.54688 4.64942 1.75 8.10254 1.75C11.5556 1.75 14.3525 4.54688 14.3525 8C14.3525 11.4531 11.5556 14.25 8.10254 14.25ZM10.0338 10.9875L7.38066 9.05937C7.28379 8.9875 7.22754 8.875 7.22754 8.75625V3.625C7.22754 3.41875 7.39629 3.25 7.60254 3.25H8.60254C8.80879 3.25 8.97754 3.41875 8.97754 3.625V8.05313L11.065 9.57187C11.2337 9.69375 11.2681 9.92813 11.1462 10.0969L10.5588 10.9062C10.4369 11.0719 10.2025 11.1094 10.0338 10.9875Z" fill="#8A21CF"/>
</svg>
