<svg width="17" height="16" viewBox="0 0 17 16" fill="none" xmlns="http://www.w3.org/2000/svg">
<mask id="mask0_62_10229" style="mask-type:alpha" maskUnits="userSpaceOnUse" x="0" y="0" width="17" height="16">
<rect x="0.768555" width="16" height="16" fill="#D9D9D9"/>
</mask>
<g mask="url(#mask0_62_10229)">
<path d="M6.86823 13.9L5.80156 12.1L3.76823 11.6666L3.96823 9.56664L2.60156 7.99998L3.96823 6.43331L3.76823 4.33331L5.80156 3.89998L6.86823 2.09998L8.76823 2.89998L10.6682 2.09998L11.7349 3.89998L13.7682 4.33331L13.5682 6.43331L14.9349 7.99998L13.5682 9.56664L13.7682 11.6666L11.7349 12.1L10.6682 13.9L8.76823 13.1L6.86823 13.9ZM7.06823 13.3L8.76823 12.6L10.4682 13.3L11.4349 11.7L13.2682 11.3L13.1016 9.39997L14.3349 7.99998L13.1016 6.59998L13.2682 4.69998L11.4349 4.29998L10.4682 2.69998L8.76823 3.39998L7.06823 2.69998L6.10156 4.29998L4.26823 4.69998L4.4349 6.59998L3.20156 7.99998L4.4349 9.39997L4.26823 11.3L6.10156 11.7L7.06823 13.3ZM8.06823 9.76664L11.2349 6.59998L10.9016 6.26664L8.06823 9.09998L6.6349 7.66664L6.30156 7.99998L8.06823 9.76664Z" fill="#3E065F"/>
</g>
</svg>
